<?xml version="1.0" encoding="UTF-8"?>
<svg width="384px" height="163px" viewBox="0 0 384 163" version="1.1" xmlns="http://www.w3.org/2000/svg" xmlns:xlink="http://www.w3.org/1999/xlink">
    <!-- Generator: Sketch 45.2 (43514) - http://www.bohemiancoding.com/sketch -->
    <title>404</title>
    <desc>Created with Sketch.</desc>
    <defs></defs>
    <g id="product" stroke="none" stroke-width="1" fill="none" fill-rule="evenodd">
        <g id="404" transform="translate(-768.000000, -170.000000)">
            <g transform="translate(768.000000, 170.000000)">
                <g>
                    <g id="Group" transform="translate(70.000000, 0.000000)">
                        <polygon id="Fill-1" fill="#2E93D1" points="32.5969316 19 0 71.010837 0 84.0315237 37.9770761 84.0315237 37.9770761 106 51.0997971 106 51.0997971 84.0315237 62 84.0315237 62 71.010837 51.0997971 71.010837 51.0997971 55.0348529 37.9770761 55.0348529 37.9770761 71.010837 15.1378846 71.010837 47.7348161 19"></polygon>
                        <polygon id="Fill-2" fill="#32B391" points="214.596454 19 182 71.010837 182 84.0315237 219.976686 84.0315237 219.976686 106 233.09962 106 233.09962 84.0315237 244 84.0315237 244 71.010837 233.09962 71.010837 233.09962 55.0348529 219.976686 55.0348529 219.976686 71.010837 197.13813 71.010837 229.734585 19"></polygon>
                        <path d="M128.245,50.948 C124.253,50.948 121.018,47.712 121.018,43.72 C121.018,39.728 124.253,36.492 128.245,36.492 C132.237,36.492 135.474,39.728 135.474,43.72 C135.474,47.712 132.237,50.948 128.245,50.948 M110.25,50.948 C106.258,50.948 103.022,47.712 103.022,43.72 C103.022,39.728 106.258,36.492 110.25,36.492 C114.241,36.492 117.477,39.728 117.477,43.72 C117.477,47.712 114.241,50.948 110.25,50.948 M122,0 C97.699,0 78,19.7 78,44.001 L78,106.001 L86.804,97.783 L95.607,106.001 L104.412,97.783 L113.216,106.001 L122.018,97.783 L130.823,106.001 L139.626,97.783 L148.432,106.001 L157.234,97.783 L166,105.966 L166,44.001 C166,19.7 146.301,0 122,0" id="Fill-3" fill="#E95246"></path>
                    </g>
                    <path d="M12.192,132.6 C14.4746781,132.6 16.5759904,133.138661 18.496,134.216 C20.4160096,135.293339 21.9253278,136.781324 23.024,138.68 C24.1226722,140.578676 24.672,142.642656 24.672,144.872 C24.672,147.101344 24.1280054,149.165324 23.04,151.064 C21.9519946,152.962676 20.4586762,154.455995 18.56,155.544 C16.6613238,156.632005 14.5973445,157.176 12.368,157.176 C10.1386555,157.176 8.0640096,156.637339 6.144,155.56 C4.2239904,154.482661 2.72000544,153.000009 1.632,151.112 C0.54399456,149.223991 0,147.165344 0,144.936 C0,142.706656 0.54399456,140.637343 1.632,138.728 C2.72000544,136.818657 4.20799056,135.320005 6.096,134.232 C7.98400944,133.143995 10.0159891,132.6 12.192,132.6 Z M12.288,154.488 C14.95468,154.488 17.2106574,153.581342 19.056,151.768 C20.9013426,149.954658 21.824,147.68268 21.824,144.952 C21.824,142.22132 20.890676,139.928009 19.024,138.072 C17.157324,136.215991 14.9120131,135.288 12.288,135.288 C9.59998656,135.288 7.35467568,136.221324 5.552,138.088 C3.74932432,139.954676 2.848,142.226653 2.848,144.904 C2.848,147.581347 3.77599072,149.847991 5.632,151.704 C7.48800928,153.560009 9.70665376,154.488 12.288,154.488 Z M36.736,138.712 C39.2533459,138.712 41.3919912,139.618658 43.152,141.432 C44.9120088,143.245342 45.792,145.421321 45.792,147.96 C45.792,150.498679 44.9226754,152.669324 43.184,154.472 C41.4453246,156.274676 39.2960128,157.176 36.736,157.176 C34.1759872,157.176 32.0213421,156.274676 30.272,154.472 C28.5226579,152.669324 27.648,150.498679 27.648,147.96 C27.648,145.421321 28.5279912,143.245342 30.288,141.432 C32.0480088,139.618658 34.1973206,138.712 36.736,138.712 Z M36.736,154.648 C38.5066755,154.648 40.0159938,154.002673 41.264,152.712 C42.5120062,151.421327 43.136,149.864009 43.136,148.04 C43.136,146.215991 42.5013397,144.63734 41.232,143.304 C39.9626603,141.97066 38.4586754,141.304 36.72,141.304 C34.9813246,141.304 33.482673,141.97066 32.224,143.304 C30.965327,144.63734 30.336,146.221324 30.336,148.056 C30.336,149.890676 30.9439939,151.447994 32.16,152.728 C33.3760061,154.008006 34.9013242,154.648 36.736,154.648 Z M57.696,138.712 C60.2133459,138.712 62.3519912,139.618658 64.112,141.432 C65.8720088,143.245342 66.752,145.421321 66.752,147.96 C66.752,150.498679 65.8826754,152.669324 64.144,154.472 C62.4053246,156.274676 60.2560128,157.176 57.696,157.176 C55.1359872,157.176 52.9813421,156.274676 51.232,154.472 C49.4826579,152.669324 48.608,150.498679 48.608,147.96 C48.608,145.421321 49.4879912,143.245342 51.248,141.432 C53.0080088,139.618658 55.1573206,138.712 57.696,138.712 Z M57.696,154.648 C59.4666755,154.648 60.9759938,154.002673 62.224,152.712 C63.4720062,151.421327 64.096,149.864009 64.096,148.04 C64.096,146.215991 63.4613397,144.63734 62.192,143.304 C60.9226603,141.97066 59.4186754,141.304 57.68,141.304 C55.9413246,141.304 54.442673,141.97066 53.184,143.304 C51.925327,144.63734 51.296,146.221324 51.296,148.056 C51.296,149.890676 51.9039939,151.447994 53.12,152.728 C54.3360061,154.008006 55.8613242,154.648 57.696,154.648 Z M73.024,141.816 C74.7520086,139.746656 76.8853206,138.712 79.424,138.712 C81.9626794,138.712 84.1173245,139.613324 85.888,141.416 C87.6586755,143.218676 88.544,145.389321 88.544,147.928 C88.544,150.466679 87.6693421,152.642658 85.92,154.456 C84.1706579,156.269342 82.058679,157.176 79.584,157.176 C77.109321,157.176 74.9226762,156.130677 73.024,154.04 L73.024,162.776 L70.4,162.776 L70.4,139.16 L73.024,139.16 L73.024,141.816 Z M79.424,154.712 C81.1733421,154.712 82.6933269,154.056007 83.984,152.744 C85.2746731,151.431993 85.92,149.848009 85.92,147.992 C85.92,146.135991 85.2853397,144.552007 84.016,143.24 C82.7466603,141.927993 81.1946758,141.272 79.36,141.272 C77.5253242,141.272 75.9840062,141.917327 74.736,143.208 C73.4879938,144.498673 72.864,146.093324 72.864,147.992 C72.864,149.890676 73.5039936,151.485327 74.784,152.776 C76.0640064,154.066673 77.6106576,154.712 79.424,154.712 Z M101.28,141.208 L99.584,142.968 C98.325327,141.794661 97.1733386,141.208 96.128,141.208 C95.4666634,141.208 94.9120022,141.415998 94.464,141.832 C94.0159978,142.248002 93.792,142.759997 93.792,143.368 C93.792,143.976003 94.0426642,144.509331 94.544,144.968 C95.0453358,145.426669 95.9359936,145.991997 97.216,146.664 C98.4960064,147.336003 99.4826632,148.077329 100.176,148.888 C100.869337,149.698671 101.216,150.690661 101.216,151.864 C101.216,153.357341 100.698672,154.615995 99.664,155.64 C98.6293282,156.664005 97.3546742,157.176 95.84,157.176 C93.7279894,157.176 91.968007,156.280009 90.56,154.488 L92.224,152.632 C93.3760058,153.976007 94.5493274,154.648 95.744,154.648 C96.5546707,154.648 97.2479971,154.381336 97.824,153.848 C98.4000029,153.314664 98.688,152.69067 98.688,151.976 C98.688,151.26133 98.4266693,150.664002 97.904,150.184 C97.3813307,149.703998 96.4853397,149.144003 95.216,148.504 C93.9466603,147.863997 92.9866699,147.154671 92.336,146.376 C91.6853301,145.597329 91.36,144.57334 91.36,143.304 C91.36,142.03466 91.8239954,140.952004 92.752,140.056 C93.6800046,139.159996 94.906659,138.712 96.432,138.712 C97.957341,138.712 99.5733248,139.543992 101.28,141.208 Z M109.44,151.448 L106.08,157.752 L104.128,156.92 L106.912,150.232 L109.44,151.448 Z M115.776,156.6 L113.152,156.6 L113.152,132.6 L115.776,132.6 L115.776,156.6 Z M128.16,138.712 C130.677346,138.712 132.815991,139.618658 134.576,141.432 C136.336009,143.245342 137.216,145.421321 137.216,147.96 C137.216,150.498679 136.346675,152.669324 134.608,154.472 C132.869325,156.274676 130.720013,157.176 128.16,157.176 C125.599987,157.176 123.445342,156.274676 121.696,154.472 C119.946658,152.669324 119.072,150.498679 119.072,147.96 C119.072,145.421321 119.951991,143.245342 121.712,141.432 C123.472009,139.618658 125.621321,138.712 128.16,138.712 Z M128.16,154.648 C129.930676,154.648 131.439994,154.002673 132.688,152.712 C133.936006,151.421327 134.56,149.864009 134.56,148.04 C134.56,146.215991 133.92534,144.63734 132.656,143.304 C131.38666,141.97066 129.882675,141.304 128.144,141.304 C126.405325,141.304 124.906673,141.97066 123.648,143.304 C122.389327,144.63734 121.76,146.221324 121.76,148.056 C121.76,149.890676 122.367994,151.447994 123.584,152.728 C124.800006,154.008006 126.325324,154.648 128.16,154.648 Z M149.12,138.712 C151.637346,138.712 153.775991,139.618658 155.536,141.432 C157.296009,143.245342 158.176,145.421321 158.176,147.96 C158.176,150.498679 157.306675,152.669324 155.568,154.472 C153.829325,156.274676 151.680013,157.176 149.12,157.176 C146.559987,157.176 144.405342,156.274676 142.656,154.472 C140.906658,152.669324 140.032,150.498679 140.032,147.96 C140.032,145.421321 140.911991,143.245342 142.672,141.432 C144.432009,139.618658 146.581321,138.712 149.12,138.712 Z M149.12,154.648 C150.890676,154.648 152.399994,154.002673 153.648,152.712 C154.896006,151.421327 155.52,149.864009 155.52,148.04 C155.52,146.215991 154.88534,144.63734 153.616,143.304 C152.34666,141.97066 150.842675,141.304 149.104,141.304 C147.365325,141.304 145.866673,141.97066 144.608,143.304 C143.349327,144.63734 142.72,146.221324 142.72,148.056 C142.72,149.890676 143.327994,151.447994 144.544,152.728 C145.760006,154.008006 147.285324,154.648 149.12,154.648 Z M175.488,156.6 L171.68,156.6 L163.488,149.24 L163.488,156.6 L160.832,156.6 L160.832,132.6 L163.488,132.6 L163.488,145.752 L171.008,139.192 L174.944,139.16 L165.344,147.48 L175.488,156.6 Z M186.944,141.208 L185.248,142.968 C183.989327,141.794661 182.837339,141.208 181.792,141.208 C181.130663,141.208 180.576002,141.415998 180.128,141.832 C179.679998,142.248002 179.456,142.759997 179.456,143.368 C179.456,143.976003 179.706664,144.509331 180.208,144.968 C180.709336,145.426669 181.599994,145.991997 182.88,146.664 C184.160006,147.336003 185.146663,148.077329 185.84,148.888 C186.533337,149.698671 186.88,150.690661 186.88,151.864 C186.88,153.357341 186.362672,154.615995 185.328,155.64 C184.293328,156.664005 183.018674,157.176 181.504,157.176 C179.391989,157.176 177.632007,156.280009 176.224,154.488 L177.888,152.632 C179.040006,153.976007 180.213327,154.648 181.408,154.648 C182.218671,154.648 182.911997,154.381336 183.488,153.848 C184.064003,153.314664 184.352,152.69067 184.352,151.976 C184.352,151.26133 184.090669,150.664002 183.568,150.184 C183.045331,149.703998 182.14934,149.144003 180.88,148.504 C179.61066,147.863997 178.65067,147.154671 178,146.376 C177.34933,145.597329 177.024,144.57334 177.024,143.304 C177.024,142.03466 177.487995,140.952004 178.416,140.056 C179.344005,139.159996 180.570659,138.712 182.096,138.712 C183.621341,138.712 185.237325,139.543992 186.944,141.208 Z M200.576,156.6 L197.952,156.6 L197.952,132.6 L200.576,132.6 L200.576,156.6 Z M205.664,132.6 C206.240003,132.6 206.725331,132.797331 207.12,133.192 C207.514669,133.586669 207.712,134.066664 207.712,134.632 C207.712,135.197336 207.514669,135.677331 207.12,136.072 C206.725331,136.466669 206.245336,136.664 205.68,136.664 C205.114664,136.664 204.634669,136.461335 204.24,136.056 C203.845331,135.650665 203.648,135.176003 203.648,134.632 C203.648,134.087997 203.845331,133.613335 204.24,133.208 C204.634669,132.802665 205.109331,132.6 205.664,132.6 Z M207.008,156.6 L204.352,156.6 L204.352,139.16 L207.008,139.16 L207.008,156.6 Z M224.768,156.6 L220.96,156.6 L212.768,149.24 L212.768,156.6 L210.112,156.6 L210.112,132.6 L212.768,132.6 L212.768,145.752 L220.288,139.192 L224.224,139.16 L214.624,147.48 L224.768,156.6 Z M244.32,148.344 L229.024,148.344 C229.130667,150.26401 229.775994,151.805328 230.96,152.968 C232.144006,154.130672 233.557325,154.712 235.2,154.712 C237.994681,154.712 240.127993,153.336014 241.6,150.584 L243.84,151.736 C242.837328,153.592009 241.65334,154.962662 240.288,155.848 C238.92266,156.733338 237.290676,157.176 235.392,157.176 C232.767987,157.176 230.602675,156.274676 228.896,154.472 C227.189325,152.669324 226.336,150.498679 226.336,147.96 C226.336,145.421321 227.194658,143.245342 228.912,141.432 C230.629342,139.618658 232.757321,138.712 235.296,138.712 C237.834679,138.712 239.957325,139.570658 241.664,141.288 C243.370675,143.005342 244.256,145.357318 244.32,148.344 Z M241.376,146.008 C241.055998,144.514659 240.330672,143.352004 239.2,142.52 C238.069328,141.687996 236.768007,141.272 235.296,141.272 C232.309318,141.272 230.325338,142.850651 229.344,146.008 L241.376,146.008 Z M273.312,156.6 L270.72,156.6 L270.72,154.04 C268.821324,156.130677 266.634679,157.176 264.16,157.176 C261.685321,157.176 259.568009,156.264009 257.808,154.44 C256.047991,152.615991 255.168,150.440013 255.168,147.912 C255.168,145.383987 256.053324,143.218676 257.824,141.416 C259.594676,139.613324 261.754654,138.712 264.304,138.712 C266.853346,138.712 268.991991,139.746656 270.72,141.816 L270.72,139.16 L273.312,139.16 L273.312,156.6 Z M264.352,154.712 C266.122676,154.712 267.647994,154.072006 268.928,152.792 C270.208006,151.511994 270.848,149.917343 270.848,148.008 C270.848,146.098657 270.218673,144.498673 268.96,143.208 C267.701327,141.917327 266.160009,141.272 264.336,141.272 C262.511991,141.272 260.970673,141.93866 259.712,143.272 C258.453327,144.60534 257.824,146.178658 257.824,147.992 C257.824,149.805342 258.463994,151.37866 259.744,152.712 C261.024006,154.04534 262.559991,154.712 264.352,154.712 Z M303.232,152.504 C303.232,154.808012 303.034669,156.514661 302.64,157.624 C302.245331,158.733339 301.648004,159.671996 300.848,160.44 C300.047996,161.208004 299.088006,161.789331 297.968,162.184 C296.847994,162.578669 295.616007,162.776 294.272,162.776 C289.727977,162.776 286.698674,160.856019 285.184,157.016 L288,157.016 C289.23734,159.234678 291.295986,160.344 294.176,160.344 C295.498673,160.344 296.682661,160.088003 297.728,159.576 C298.773339,159.063997 299.509331,158.381338 299.936,157.528 C300.362669,156.674662 300.576,155.362676 300.576,153.592 L300.576,153.432 C299.743996,154.370671 298.741339,155.085331 297.568,155.576 C296.394661,156.066669 295.178673,156.312 293.92,156.312 C291.402654,156.312 289.296008,155.448009 287.6,153.72 C285.903992,151.991991 285.066667,149.954678 285.088,147.608 C285.066667,145.154654 285.951991,143.058675 287.744,141.32 C289.536009,139.581325 291.663988,138.712 294.128,138.712 C296.592012,138.712 298.741324,139.714657 300.576,141.72 L300.576,139.16 L303.232,139.16 L303.232,152.504 Z M300.672,147.608 C300.672,145.773324 300.058673,144.258673 298.832,143.064 C297.605327,141.869327 296.106676,141.272 294.336,141.272 C292.458657,141.272 290.88534,141.917327 289.616,143.208 C288.34666,144.498673 287.712,145.997325 287.712,147.704 C287.712,149.410675 288.319994,150.855994 289.536,152.04 C290.752006,153.224006 292.309324,153.816 294.208,153.816 C296.106676,153.816 297.658661,153.234672 298.864,152.072 C300.069339,150.909328 300.672,149.421342 300.672,147.608 Z M322.624,156.6 L319.968,156.6 L319.968,148.28 C319.968,146.658659 319.92,145.517337 319.824,144.856 C319.728,144.194663 319.509335,143.57067 319.168,142.984 C318.826665,142.39733 318.36267,141.949335 317.776,141.64 C317.18933,141.330665 316.485337,141.176 315.664,141.176 C314.842663,141.176 314.05867,141.367998 313.312,141.752 C312.56533,142.136002 311.925336,142.66933 311.392,143.352 C310.858664,144.03467 310.490668,144.759996 310.288,145.528 C310.085332,146.296004 309.984,147.831988 309.984,150.136 L309.984,156.6 L307.328,156.6 L307.328,132.6 L309.984,132.6 L309.984,141.784 C311.712009,139.73599 313.759988,138.712 316.128,138.712 C317.386673,138.712 318.527995,139.03733 319.552,139.688 C320.576005,140.33867 321.343997,141.234661 321.856,142.376 C322.368003,143.517339 322.624,145.271988 322.624,147.64 L322.624,156.6 Z M335.136,138.712 C337.653346,138.712 339.791991,139.618658 341.552,141.432 C343.312009,143.245342 344.192,145.421321 344.192,147.96 C344.192,150.498679 343.322675,152.669324 341.584,154.472 C339.845325,156.274676 337.696013,157.176 335.136,157.176 C332.575987,157.176 330.421342,156.274676 328.672,154.472 C326.922658,152.669324 326.048,150.498679 326.048,147.96 C326.048,145.421321 326.927991,143.245342 328.688,141.432 C330.448009,139.618658 332.597321,138.712 335.136,138.712 Z M335.136,154.648 C336.906676,154.648 338.415994,154.002673 339.664,152.712 C340.912006,151.421327 341.536,149.864009 341.536,148.04 C341.536,146.215991 340.90134,144.63734 339.632,143.304 C338.36266,141.97066 336.858675,141.304 335.12,141.304 C333.381325,141.304 331.882673,141.97066 330.624,143.304 C329.365327,144.63734 328.736,146.221324 328.736,148.056 C328.736,149.890676 329.343994,151.447994 330.56,152.728 C331.776006,154.008006 333.301324,154.648 335.136,154.648 Z M356.896,141.208 L355.2,142.968 C353.941327,141.794661 352.789339,141.208 351.744,141.208 C351.082663,141.208 350.528002,141.415998 350.08,141.832 C349.631998,142.248002 349.408,142.759997 349.408,143.368 C349.408,143.976003 349.658664,144.509331 350.16,144.968 C350.661336,145.426669 351.551994,145.991997 352.832,146.664 C354.112006,147.336003 355.098663,148.077329 355.792,148.888 C356.485337,149.698671 356.832,150.690661 356.832,151.864 C356.832,153.357341 356.314672,154.615995 355.28,155.64 C354.245328,156.664005 352.970674,157.176 351.456,157.176 C349.343989,157.176 347.584007,156.280009 346.176,154.488 L347.84,152.632 C348.992006,153.976007 350.165327,154.648 351.36,154.648 C352.170671,154.648 352.863997,154.381336 353.44,153.848 C354.016003,153.314664 354.304,152.69067 354.304,151.976 C354.304,151.26133 354.042669,150.664002 353.52,150.184 C352.997331,149.703998 352.10134,149.144003 350.832,148.504 C349.56266,147.863997 348.60267,147.154671 347.952,146.376 C347.30133,145.597329 346.976,144.57334 346.976,143.304 C346.976,142.03466 347.439995,140.952004 348.368,140.056 C349.296005,139.159996 350.522659,138.712 352.048,138.712 C353.573341,138.712 355.189325,139.543992 356.896,141.208 Z M368.256,141.464 L364.8,141.464 L364.8,153.688 C364.8,154.136002 364.863999,154.408 364.992,154.504 C365.120001,154.6 365.439997,154.648 365.952,154.648 L367.488,154.648 L367.488,156.92 C366.463995,157.090668 365.685336,157.176 365.152,157.176 C364.127995,157.176 363.370669,156.925336 362.88,156.424 C362.389331,155.922664 362.144,155.128005 362.144,154.04 L362.144,141.464 L359.136,141.464 L359.136,139.16 L362.144,139.16 L362.144,132.6 L364.8,132.6 L364.8,139.16 L368.256,139.16 L368.256,141.464 Z M382.912,148.6 L380.192,148.6 L380.192,131 L382.912,131 L382.912,148.6 Z M381.568,151.128 C382.18667,151.128 382.703998,151.335998 383.12,151.752 C383.536002,152.168002 383.744,152.674664 383.744,153.272 C383.744,153.869336 383.530669,154.381331 383.104,154.808 C382.677331,155.234669 382.17067,155.448 381.584,155.448 C380.99733,155.448 380.490669,155.234669 380.064,154.808 C379.637331,154.381331 379.424,153.869336 379.424,153.272 C379.424,152.674664 379.637331,152.168002 380.064,151.752 C380.490669,151.335998 380.991997,151.128 381.568,151.128 Z" id="Ooops,looks-like-a-g" fill="#000000"></path>
                </g>
            </g>
        </g>
    </g>
</svg>