<?xml version="1.0" encoding="UTF-8"?>
<svg width="346px" height="154px" viewBox="0 0 346 154" version="1.1" xmlns="http://www.w3.org/2000/svg" xmlns:xlink="http://www.w3.org/1999/xlink">
    <!-- Generator: Sketch 45.2 (43514) - http://www.bohemiancoding.com/sketch -->
    <title>500</title>
    <desc>Created with Sketch.</desc>
    <defs></defs>
    <g id="product" stroke="none" stroke-width="1" fill="none" fill-rule="evenodd">
        <g id="500" transform="translate(-787.000000, -180.000000)">
            <g transform="translate(787.000000, 180.000000)">
                <g>
                    <g id="Group" transform="translate(75.000000, 0.000000)">
                        <path d="M8.04416667,64.4891954 C8.86083742,70.3816387 11.2087306,74.7804452 15.0879167,77.6857471 C18.9671027,80.591049 23.7241385,82.0436782 29.3591667,82.0436782 C32.5441826,82.0436782 35.4229038,81.4708103 37.9954167,80.3250575 C40.5679295,79.1793046 42.752491,77.6039181 44.5491667,75.5988506 C46.3458423,73.5937831 47.7137453,71.2613926 48.6529167,68.6016092 C49.592088,65.9418258 50.0616667,63.057027 50.0616667,59.9471264 C50.0616667,56.7553863 49.5512551,53.8092089 48.5304167,51.1085057 C47.5095782,48.4078026 46.0804259,46.0754121 44.2429167,44.1112644 C42.4054075,42.1471166 40.1595966,40.6331088 37.5054167,39.5691954 C34.8512367,38.505282 31.8908497,37.9733333 28.6241667,37.9733333 C24.7041471,37.9733333 21.1925155,38.6894181 18.0891667,40.1216092 C14.9858178,41.5538003 12.2500118,43.824812 9.88166667,46.9347126 L3.38916667,46.0754023 L10.3716667,1.26850575 L53.2466667,1.26850575 L53.2466667,7.89747126 L16.9866667,7.89747126 L11.5966667,36.9912644 C13.3116752,35.927351 14.8837429,35.0271301 16.3129167,34.2905747 C17.7420905,33.5540193 19.1916593,32.9606919 20.6616667,32.5105747 C22.131674,32.0604575 23.6629087,31.753564 25.2554167,31.5898851 C26.8479246,31.4262061 28.6241569,31.3443678 30.5841667,31.3443678 C34.5041863,31.3443678 38.1383166,31.9990739 41.4866667,33.3085057 C44.8350167,34.6179376 47.7341544,36.5002176 50.1841667,38.9554023 C52.6341789,41.410587 54.5329099,44.4181431 55.8804167,47.9781609 C57.2279234,51.5381787 57.9016667,55.527794 57.9016667,59.9471264 C57.9016667,64.5301379 57.1462576,68.6015914 55.6354167,72.1616092 C54.1245758,75.721627 52.103346,78.7291831 49.5716667,81.1843678 C47.0399873,83.6395525 44.1204332,85.501373 40.8129167,86.7698851 C37.5054001,88.0383971 34.0958509,88.6726437 30.5841667,88.6726437 C26.5008129,88.6726437 22.6829344,88.2634524 19.1304167,87.4450575 C15.5778989,86.6266626 12.4541801,85.2558717 9.75916667,83.3326437 C7.06415319,81.4094157 4.8795917,78.9133487 3.20541667,75.8443678 C1.53124163,72.775387 0.530834967,68.9903673 0.204166667,64.4891954 L8.04416667,64.4891954 Z" id="500" fill="#3F95D2"></path>
                        <path d="M118.988333,43.9475862 C118.988333,39.2827353 118.722919,34.7202522 118.192083,30.26 C117.661247,25.7997478 116.620008,21.8101325 115.068333,18.2910345 C113.516659,14.7719364 111.332097,11.9485164 108.514583,9.82068966 C105.697069,7.69286292 102.00169,6.62896552 97.4283333,6.62896552 C93.0999784,6.62896552 89.5679303,7.71332249 86.8320833,9.88206897 C84.0962363,12.0508154 81.9525078,14.9356142 80.4008333,18.5365517 C78.8491589,22.1374893 77.7670864,26.2294024 77.1545833,30.8124138 C76.5420803,35.3954252 76.2358333,40.0602062 76.2358333,44.8068966 C76.2358333,50.3719818 76.5829132,55.4254945 77.2770833,59.9675862 C77.9712535,64.5096779 79.1349918,68.3765358 80.7683333,71.5682759 C82.4016748,74.760016 84.5862363,77.2356234 87.3220833,78.9951724 C90.0579303,80.7547214 93.5083125,81.6344828 97.6733333,81.6344828 C102.328357,81.6344828 106.064569,80.4887471 108.882083,78.1972414 C111.699597,75.9057357 113.843326,72.9595582 115.313333,69.3586207 C116.783341,65.7576831 117.763331,61.7066892 118.253333,57.2055172 C118.743336,52.7043453 118.988333,48.2850792 118.988333,43.9475862 Z M97.6733333,0 C101.920021,0 105.594984,0.634246531 108.698333,1.90275862 C111.801682,3.17127071 114.435406,4.91033378 116.599583,7.12 C118.763761,9.32966622 120.519577,11.9075715 121.867083,14.8537931 C123.21459,17.8000147 124.25583,20.9303283 124.990833,24.2448276 C125.725837,27.5593269 126.215832,30.9760744 126.460833,34.4951724 C126.705835,38.0142705 126.828333,41.4514775 126.828333,44.8068966 C126.828333,50.5356608 126.420004,56.0188244 125.603333,61.2565517 C124.786663,66.4942791 123.296261,71.1181409 121.132083,75.1282759 C118.967906,79.1384109 116.007519,82.3301031 112.250833,84.7034483 C108.494148,87.0767935 103.63503,88.2634483 97.6733333,88.2634483 C91.7116369,88.2634483 86.8321023,87.0767935 83.0345833,84.7034483 C79.2370643,82.3301031 76.2562608,79.1179513 74.0920833,75.0668966 C71.9279058,71.0158418 70.4375041,66.3101417 69.6208333,60.9496552 C68.8041626,55.5891686 68.3958333,49.921869 68.3958333,43.9475862 C68.3958333,38.4643404 68.7633297,33.1039342 69.4983333,27.8662069 C70.233337,22.6284796 71.6420729,17.9432391 73.7245833,13.8103448 C75.8070937,9.6774506 78.7674808,6.34254142 82.6058333,3.80551724 C86.4441859,1.26849306 91.4666356,0 97.6733333,0 Z" id="500" fill="#E15445"></path>
                        <path d="M187.506667,44.3567816 C187.506667,39.6919307 187.241253,35.1294476 186.710417,30.6691954 C186.179581,26.2089432 185.138341,22.2193279 183.586667,18.7002299 C182.034992,15.1811318 179.850431,12.3577118 177.032917,10.2298851 C174.215403,8.10205833 170.520023,7.03816092 165.946667,7.03816092 C161.618312,7.03816092 158.086264,8.12251789 155.350417,10.2912644 C152.61457,12.4600108 150.470841,15.3448096 148.919167,18.9457471 C147.367492,22.5466847 146.28542,26.6385978 145.672917,31.2216092 C145.060414,35.8046206 144.754167,40.4694016 144.754167,45.216092 C144.754167,50.7811773 145.101247,55.8346899 145.795417,60.3767816 C146.489587,64.9188733 147.653325,68.7857312 149.286667,71.9774713 C150.920008,75.1692114 153.10457,77.6448188 155.840417,79.4043678 C158.576264,81.1639168 162.026646,82.0436782 166.191667,82.0436782 C170.84669,82.0436782 174.582903,80.8979425 177.400417,78.6064368 C180.217931,76.3149311 182.361659,73.3687536 183.831667,69.7678161 C185.301674,66.1668785 186.281664,62.1158846 186.771667,57.6147126 C187.261669,53.1135407 187.506667,48.6942746 187.506667,44.3567816 Z M166.191667,0.409195402 C170.438355,0.409195402 174.113318,1.04344193 177.216667,2.31195402 C180.320016,3.58046611 182.953739,5.31952918 185.117917,7.5291954 C187.282094,9.73886162 189.03791,12.3167669 190.385417,15.2629885 C191.732923,18.2092101 192.774163,21.3395237 193.509167,24.654023 C194.24417,27.9685223 194.734165,31.3852698 194.979167,34.9043678 C195.224168,38.4234659 195.346667,41.8606729 195.346667,45.216092 C195.346667,50.9448562 194.938337,56.4280198 194.121667,61.6657471 C193.304996,66.9034745 191.814594,71.5273363 189.650417,75.5374713 C187.486239,79.5476063 184.525852,82.7392985 180.769167,85.1126437 C177.012481,87.4859889 172.153363,88.6726437 166.191667,88.6726437 C160.22997,88.6726437 155.350436,87.4859889 151.552917,85.1126437 C147.755398,82.7392985 144.774594,79.5271467 142.610417,75.476092 C140.446239,71.4250372 138.955837,66.7193371 138.139167,61.3588506 C137.322496,55.998364 136.914167,50.3310644 136.914167,44.3567816 C136.914167,38.8735358 137.281663,33.5131296 138.016667,28.2754023 C138.75167,23.037675 140.160406,18.3524345 142.242917,14.2195402 C144.325427,10.086646 147.285814,6.75173682 151.124167,4.21471264 C154.962519,1.67768846 159.984969,0.409195402 166.191667,0.409195402 Z" id="500" fill="#49B291"></path>
                        <ellipse id="Oval-6" fill="#4C97D3" cx="98" cy="43.9885057" rx="6.125" ry="6.13793103"></ellipse>
                        <ellipse id="Oval-6-Copy" fill="#58B191" cx="166.395833" cy="43.9885057" rx="6.125" ry="6.13793103"></ellipse>
                    </g>
                    <path d="M12.192,123.592 C14.4746781,123.592 16.5759904,124.130661 18.496,125.208 C20.4160096,126.285339 21.9253278,127.773324 23.024,129.672 C24.1226722,131.570676 24.672,133.634656 24.672,135.864 C24.672,138.093344 24.1280054,140.157324 23.04,142.056 C21.9519946,143.954676 20.4586762,145.447995 18.56,146.536 C16.6613238,147.624005 14.5973445,148.168 12.368,148.168 C10.1386555,148.168 8.0640096,147.629339 6.144,146.552 C4.2239904,145.474661 2.72000544,143.992009 1.632,142.104 C0.54399456,140.215991 0,138.157344 0,135.928 C0,133.698656 0.54399456,131.629343 1.632,129.72 C2.72000544,127.810657 4.20799056,126.312005 6.096,125.224 C7.98400944,124.135995 10.0159891,123.592 12.192,123.592 Z M12.288,145.48 C14.95468,145.48 17.2106574,144.573342 19.056,142.76 C20.9013426,140.946658 21.824,138.67468 21.824,135.944 C21.824,133.21332 20.890676,130.920009 19.024,129.064 C17.157324,127.207991 14.9120131,126.28 12.288,126.28 C9.59998656,126.28 7.35467568,127.213324 5.552,129.08 C3.74932432,130.946676 2.848,133.218653 2.848,135.896 C2.848,138.573347 3.77599072,140.839991 5.632,142.696 C7.48800928,144.552009 9.70665376,145.48 12.288,145.48 Z M36.736,129.704 C39.2533459,129.704 41.3919912,130.610658 43.152,132.424 C44.9120088,134.237342 45.792,136.413321 45.792,138.952 C45.792,141.490679 44.9226754,143.661324 43.184,145.464 C41.4453246,147.266676 39.2960128,148.168 36.736,148.168 C34.1759872,148.168 32.0213421,147.266676 30.272,145.464 C28.5226579,143.661324 27.648,141.490679 27.648,138.952 C27.648,136.413321 28.5279912,134.237342 30.288,132.424 C32.0480088,130.610658 34.1973206,129.704 36.736,129.704 Z M36.736,145.64 C38.5066755,145.64 40.0159938,144.994673 41.264,143.704 C42.5120062,142.413327 43.136,140.856009 43.136,139.032 C43.136,137.207991 42.5013397,135.62934 41.232,134.296 C39.9626603,132.96266 38.4586754,132.296 36.72,132.296 C34.9813246,132.296 33.482673,132.96266 32.224,134.296 C30.965327,135.62934 30.336,137.213324 30.336,139.048 C30.336,140.882676 30.9439939,142.439994 32.16,143.72 C33.3760061,145.000006 34.9013242,145.64 36.736,145.64 Z M57.696,129.704 C60.2133459,129.704 62.3519912,130.610658 64.112,132.424 C65.8720088,134.237342 66.752,136.413321 66.752,138.952 C66.752,141.490679 65.8826754,143.661324 64.144,145.464 C62.4053246,147.266676 60.2560128,148.168 57.696,148.168 C55.1359872,148.168 52.9813421,147.266676 51.232,145.464 C49.4826579,143.661324 48.608,141.490679 48.608,138.952 C48.608,136.413321 49.4879912,134.237342 51.248,132.424 C53.0080088,130.610658 55.1573206,129.704 57.696,129.704 Z M57.696,145.64 C59.4666755,145.64 60.9759938,144.994673 62.224,143.704 C63.4720062,142.413327 64.096,140.856009 64.096,139.032 C64.096,137.207991 63.4613397,135.62934 62.192,134.296 C60.9226603,132.96266 59.4186754,132.296 57.68,132.296 C55.9413246,132.296 54.442673,132.96266 53.184,134.296 C51.925327,135.62934 51.296,137.213324 51.296,139.048 C51.296,140.882676 51.9039939,142.439994 53.12,143.72 C54.3360061,145.000006 55.8613242,145.64 57.696,145.64 Z M73.024,132.808 C74.7520086,130.738656 76.8853206,129.704 79.424,129.704 C81.9626794,129.704 84.1173245,130.605324 85.888,132.408 C87.6586755,134.210676 88.544,136.381321 88.544,138.92 C88.544,141.458679 87.6693421,143.634658 85.92,145.448 C84.1706579,147.261342 82.058679,148.168 79.584,148.168 C77.109321,148.168 74.9226762,147.122677 73.024,145.032 L73.024,153.768 L70.4,153.768 L70.4,130.152 L73.024,130.152 L73.024,132.808 Z M79.424,145.704 C81.1733421,145.704 82.6933269,145.048007 83.984,143.736 C85.2746731,142.423993 85.92,140.840009 85.92,138.984 C85.92,137.127991 85.2853397,135.544007 84.016,134.232 C82.7466603,132.919993 81.1946758,132.264 79.36,132.264 C77.5253242,132.264 75.9840062,132.909327 74.736,134.2 C73.4879938,135.490673 72.864,137.085324 72.864,138.984 C72.864,140.882676 73.5039936,142.477327 74.784,143.768 C76.0640064,145.058673 77.6106576,145.704 79.424,145.704 Z M101.28,132.2 L99.584,133.96 C98.325327,132.786661 97.1733386,132.2 96.128,132.2 C95.4666634,132.2 94.9120022,132.407998 94.464,132.824 C94.0159978,133.240002 93.792,133.751997 93.792,134.36 C93.792,134.968003 94.0426642,135.501331 94.544,135.96 C95.0453358,136.418669 95.9359936,136.983997 97.216,137.656 C98.4960064,138.328003 99.4826632,139.069329 100.176,139.88 C100.869337,140.690671 101.216,141.682661 101.216,142.856 C101.216,144.349341 100.698672,145.607995 99.664,146.632 C98.6293282,147.656005 97.3546742,148.168 95.84,148.168 C93.7279894,148.168 91.968007,147.272009 90.56,145.48 L92.224,143.624 C93.3760058,144.968007 94.5493274,145.64 95.744,145.64 C96.5546707,145.64 97.2479971,145.373336 97.824,144.84 C98.4000029,144.306664 98.688,143.68267 98.688,142.968 C98.688,142.25333 98.4266693,141.656002 97.904,141.176 C97.3813307,140.695998 96.4853397,140.136003 95.216,139.496 C93.9466603,138.855997 92.9866699,138.146671 92.336,137.368 C91.6853301,136.589329 91.36,135.56534 91.36,134.296 C91.36,133.02666 91.8239954,131.944004 92.752,131.048 C93.6800046,130.151996 94.906659,129.704 96.432,129.704 C97.957341,129.704 99.5733248,130.535992 101.28,132.2 Z M109.44,142.44 L106.08,148.744 L104.128,147.912 L106.912,141.224 L109.44,142.44 Z M121.504,132.456 L118.048,132.456 L118.048,144.68 C118.048,145.128002 118.111999,145.4 118.24,145.496 C118.368001,145.592 118.687997,145.64 119.2,145.64 L120.736,145.64 L120.736,147.912 C119.711995,148.082668 118.933336,148.168 118.4,148.168 C117.375995,148.168 116.618669,147.917336 116.128,147.416 C115.637331,146.914664 115.392,146.120005 115.392,145.032 L115.392,132.456 L112.384,132.456 L112.384,130.152 L115.392,130.152 L115.392,123.592 L118.048,123.592 L118.048,130.152 L121.504,130.152 L121.504,132.456 Z M139.616,147.592 L136.96,147.592 L136.96,139.272 C136.96,137.650659 136.912,136.509337 136.816,135.848 C136.72,135.186663 136.501335,134.56267 136.16,133.976 C135.818665,133.38933 135.35467,132.941335 134.768,132.632 C134.18133,132.322665 133.477337,132.168 132.656,132.168 C131.834663,132.168 131.05067,132.359998 130.304,132.744 C129.55733,133.128002 128.917336,133.66133 128.384,134.344 C127.850664,135.02667 127.482668,135.751996 127.28,136.52 C127.077332,137.288004 126.976,138.823988 126.976,141.128 L126.976,147.592 L124.32,147.592 L124.32,123.592 L126.976,123.592 L126.976,132.776 C128.704009,130.72799 130.751988,129.704 133.12,129.704 C134.378673,129.704 135.519995,130.02933 136.544,130.68 C137.568005,131.33067 138.335997,132.226661 138.848,133.368 C139.360003,134.509339 139.616,136.263988 139.616,138.632 L139.616,147.592 Z M161.216,147.592 L158.624,147.592 L158.624,145.032 C156.725324,147.122677 154.538679,148.168 152.064,148.168 C149.589321,148.168 147.472009,147.256009 145.712,145.432 C143.951991,143.607991 143.072,141.432013 143.072,138.904 C143.072,136.375987 143.957324,134.210676 145.728,132.408 C147.498676,130.605324 149.658654,129.704 152.208,129.704 C154.757346,129.704 156.895991,130.738656 158.624,132.808 L158.624,130.152 L161.216,130.152 L161.216,147.592 Z M152.256,145.704 C154.026676,145.704 155.551994,145.064006 156.832,143.784 C158.112006,142.503994 158.752,140.909343 158.752,139 C158.752,137.090657 158.122673,135.490673 156.864,134.2 C155.605327,132.909327 154.064009,132.264 152.24,132.264 C150.415991,132.264 148.874673,132.93066 147.616,134.264 C146.357327,135.59734 145.728,137.170658 145.728,138.984 C145.728,140.797342 146.367994,142.37066 147.648,143.704 C148.928006,145.03734 150.463991,145.704 152.256,145.704 Z M173.728,132.456 L170.272,132.456 L170.272,144.68 C170.272,145.128002 170.335999,145.4 170.464,145.496 C170.592001,145.592 170.911997,145.64 171.424,145.64 L172.96,145.64 L172.96,147.912 C171.935995,148.082668 171.157336,148.168 170.624,148.168 C169.599995,148.168 168.842669,147.917336 168.352,147.416 C167.861331,146.914664 167.616,146.120005 167.616,145.032 L167.616,132.456 L164.608,132.456 L164.608,130.152 L167.616,130.152 L167.616,123.592 L170.272,123.592 L170.272,130.152 L173.728,130.152 L173.728,132.456 Z M184.416,121 C184.416,124.754685 184.032004,127.29866 183.264,128.632 C182.495996,129.96534 181.162676,131.101329 179.264,132.04 L178.88,131.24 C180.096006,130.55733 180.970664,129.704005 181.504,128.68 C182.037336,127.655995 182.304,126.205343 182.304,124.328 L180.384,124.328 L180.384,121 L184.416,121 Z M201.632,132.2 L199.936,133.96 C198.677327,132.786661 197.525339,132.2 196.48,132.2 C195.818663,132.2 195.264002,132.407998 194.816,132.824 C194.367998,133.240002 194.144,133.751997 194.144,134.36 C194.144,134.968003 194.394664,135.501331 194.896,135.96 C195.397336,136.418669 196.287994,136.983997 197.568,137.656 C198.848006,138.328003 199.834663,139.069329 200.528,139.88 C201.221337,140.690671 201.568,141.682661 201.568,142.856 C201.568,144.349341 201.050672,145.607995 200.016,146.632 C198.981328,147.656005 197.706674,148.168 196.192,148.168 C194.079989,148.168 192.320007,147.272009 190.912,145.48 L192.576,143.624 C193.728006,144.968007 194.901327,145.64 196.096,145.64 C196.906671,145.64 197.599997,145.373336 198.176,144.84 C198.752003,144.306664 199.04,143.68267 199.04,142.968 C199.04,142.25333 198.778669,141.656002 198.256,141.176 C197.733331,140.695998 196.83734,140.136003 195.568,139.496 C194.29866,138.855997 193.33867,138.146671 192.688,137.368 C192.03733,136.589329 191.712,135.56534 191.712,134.296 C191.712,133.02666 192.175995,131.944004 193.104,131.048 C194.032005,130.151996 195.258659,129.704 196.784,129.704 C198.309341,129.704 199.925325,130.535992 201.632,132.2 Z M230.336,147.592 L227.744,147.592 L227.744,145.032 C225.845324,147.122677 223.658679,148.168 221.184,148.168 C218.709321,148.168 216.592009,147.256009 214.832,145.432 C213.071991,143.607991 212.192,141.432013 212.192,138.904 C212.192,136.375987 213.077324,134.210676 214.848,132.408 C216.618676,130.605324 218.778654,129.704 221.328,129.704 C223.877346,129.704 226.015991,130.738656 227.744,132.808 L227.744,130.152 L230.336,130.152 L230.336,147.592 Z M221.376,145.704 C223.146676,145.704 224.671994,145.064006 225.952,143.784 C227.232006,142.503994 227.872,140.909343 227.872,139 C227.872,137.090657 227.242673,135.490673 225.984,134.2 C224.725327,132.909327 223.184009,132.264 221.36,132.264 C219.535991,132.264 217.994673,132.93066 216.736,134.264 C215.477327,135.59734 214.848,137.170658 214.848,138.984 C214.848,140.797342 215.487994,142.37066 216.768,143.704 C218.048006,145.03734 219.583991,145.704 221.376,145.704 Z M250.112,147.592 L247.488,147.592 L247.488,139.272 C247.488,137.35199 247.397334,136.045337 247.216,135.352 C247.034666,134.658663 246.768002,134.072002 246.416,133.592 C246.063998,133.111998 245.616003,132.754668 245.072,132.52 C244.527997,132.285332 243.866671,132.168 243.088,132.168 C242.309329,132.168 241.54667,132.359998 240.8,132.744 C240.05333,133.128002 239.413336,133.66133 238.88,134.344 C238.346664,135.02667 237.978668,135.751996 237.776,136.52 C237.573332,137.288004 237.472,138.823988 237.472,141.128 L237.472,147.592 L234.816,147.592 L234.816,130.152 L237.472,130.152 L237.472,132.776 C239.200009,130.72799 241.247988,129.704 243.616,129.704 C244.874673,129.704 246.015995,130.02933 247.04,130.68 C248.064005,131.33067 248.831997,132.226661 249.344,133.368 C249.856003,134.509339 250.112,136.263988 250.112,138.632 L250.112,147.592 Z M279.52,139.336 L264.224,139.336 C264.330667,141.25601 264.975994,142.797328 266.16,143.96 C267.344006,145.122672 268.757325,145.704 270.4,145.704 C273.194681,145.704 275.327993,144.328014 276.8,141.576 L279.04,142.728 C278.037328,144.584009 276.85334,145.954662 275.488,146.84 C274.12266,147.725338 272.490676,148.168 270.592,148.168 C267.967987,148.168 265.802675,147.266676 264.096,145.464 C262.389325,143.661324 261.536,141.490679 261.536,138.952 C261.536,136.413321 262.394658,134.237342 264.112,132.424 C265.829342,130.610658 267.957321,129.704 270.496,129.704 C273.034679,129.704 275.157325,130.562658 276.864,132.28 C278.570675,133.997342 279.456,136.349318 279.52,139.336 Z M276.576,137 C276.255998,135.506659 275.530672,134.344004 274.4,133.512 C273.269328,132.679996 271.968007,132.264 270.496,132.264 C267.509318,132.264 265.525338,133.842651 264.544,137 L276.576,137 Z M290.496,130.408 L289.12,132.648 C288.757332,132.455999 288.405335,132.36 288.064,132.36 C287.402663,132.36 286.805336,132.68533 286.272,133.336 C285.738664,133.98667 285.338668,134.839995 285.072,135.896 C284.805332,136.952005 284.672,138.855986 284.672,141.608 L284.672,147.592 L281.984,147.592 L281.984,130.152 L284.672,130.152 L284.672,132.04 C285.205336,131.250663 285.743997,130.664002 286.288,130.28 C286.832003,129.895998 287.450663,129.704 288.144,129.704 C288.837337,129.704 289.621329,129.938664 290.496,130.408 Z M300.128,130.408 L298.752,132.648 C298.389332,132.455999 298.037335,132.36 297.696,132.36 C297.034663,132.36 296.437336,132.68533 295.904,133.336 C295.370664,133.98667 294.970668,134.839995 294.704,135.896 C294.437332,136.952005 294.304,138.855986 294.304,141.608 L294.304,147.592 L291.616,147.592 L291.616,130.152 L294.304,130.152 L294.304,132.04 C294.837336,131.250663 295.375997,130.664002 295.92,130.28 C296.464003,129.895998 297.082663,129.704 297.776,129.704 C298.469337,129.704 299.253329,129.938664 300.128,130.408 Z M310.688,129.704 C313.205346,129.704 315.343991,130.610658 317.104,132.424 C318.864009,134.237342 319.744,136.413321 319.744,138.952 C319.744,141.490679 318.874675,143.661324 317.136,145.464 C315.397325,147.266676 313.248013,148.168 310.688,148.168 C308.127987,148.168 305.973342,147.266676 304.224,145.464 C302.474658,143.661324 301.6,141.490679 301.6,138.952 C301.6,136.413321 302.479991,134.237342 304.24,132.424 C306.000009,130.610658 308.149321,129.704 310.688,129.704 Z M310.688,145.64 C312.458676,145.64 313.967994,144.994673 315.216,143.704 C316.464006,142.413327 317.088,140.856009 317.088,139.032 C317.088,137.207991 316.45334,135.62934 315.184,134.296 C313.91466,132.96266 312.410675,132.296 310.672,132.296 C308.933325,132.296 307.434673,132.96266 306.176,134.296 C304.917327,135.62934 304.288,137.213324 304.288,139.048 C304.288,140.882676 304.895994,142.439994 306.112,143.72 C307.328006,145.000006 308.853324,145.64 310.688,145.64 Z M330.72,130.408 L329.344,132.648 C328.981332,132.455999 328.629335,132.36 328.288,132.36 C327.626663,132.36 327.029336,132.68533 326.496,133.336 C325.962664,133.98667 325.562668,134.839995 325.296,135.896 C325.029332,136.952005 324.896,138.855986 324.896,141.608 L324.896,147.592 L322.208,147.592 L322.208,130.152 L324.896,130.152 L324.896,132.04 C325.429336,131.250663 325.967997,130.664002 326.512,130.28 C327.056003,129.895998 327.674663,129.704 328.368,129.704 C329.061337,129.704 329.845329,129.938664 330.72,130.408 Z M344.832,139.592 L342.112,139.592 L342.112,121.992 L344.832,121.992 L344.832,139.592 Z M343.488,142.12 C344.10667,142.12 344.623998,142.327998 345.04,142.744 C345.456002,143.160002 345.664,143.666664 345.664,144.264 C345.664,144.861336 345.450669,145.373331 345.024,145.8 C344.597331,146.226669 344.09067,146.44 343.504,146.44 C342.91733,146.44 342.410669,146.226669 341.984,145.8 C341.557331,145.373331 341.344,144.861336 341.344,144.264 C341.344,143.666664 341.557331,143.160002 341.984,142.744 C342.410669,142.327998 342.911997,142.12 343.488,142.12 Z" id="Ooops,that’s-an-erro" fill="#000000"></path>
                </g>
            </g>
        </g>
    </g>
</svg>