<?xml version="1.0" encoding="UTF-8"?>
<svg width="12px" height="12px" viewBox="0 0 12 12" version="1.1" xmlns="http://www.w3.org/2000/svg" xmlns:xlink="http://www.w3.org/1999/xlink">
    <!-- Generator: Sketch 45.2 (43514) - http://www.bohemiancoding.com/sketch -->
    <title>Group 5</title>
    <desc>Created with Sketch.</desc>
    <defs>
        <circle id="path-1" cx="6" cy="6" r="6"></circle>
    </defs>
    <g id="product" stroke="none" stroke-width="1" fill="none" fill-rule="evenodd">
        <g id="support_Feedback-Copy" transform="translate(-784.000000, -1349.000000)">
            <g id="Group-5" transform="translate(784.000000, 1349.000000)">
                <g id="Oval-5">
                    <use fill="#00B5F4" fill-rule="evenodd" xlink:href="#path-1"></use>
                    <circle stroke="#00A6DF" stroke-width="1" cx="6" cy="6" r="5.5"></circle>
                </g>
                <path d="M5.99988884,5.46664174 L3.65676007,3.12351297 L3.65676007,3.12351297 C3.50944656,2.97619946 3.27060416,2.97619946 3.12329065,3.12351297 L3.12329065,3.12351297 L3.12329065,3.12351297 C2.97597714,3.27082648 2.97597714,3.50966888 3.12329065,3.65698239 L5.46641942,6.00011116 L3.11048513,8.35604545 C2.96317162,8.50335896 2.96317162,8.74220135 3.11048513,8.88951487 L3.11048513,8.88951487 C3.25779865,9.03682838 3.49664104,9.03682838 3.64395455,8.88951487 L3.64395455,8.88951487 L5.99988884,6.53358058 L8.35541306,8.8891048 C8.50272657,9.03641832 8.74156897,9.03641832 8.88888248,8.8891048 L8.88888248,8.8891048 C9.03619599,8.74179129 9.03619599,8.5029489 8.88888248,8.35563538 L8.88888248,8.35563538 L6.53335826,6.00011116 L8.88951487,3.64395455 C9.03682838,3.49664104 9.03682838,3.25779865 8.88951487,3.11048513 L8.88951487,3.11048513 L8.88951487,3.11048513 C8.74220135,2.96317162 8.50335896,2.96317162 8.35604545,3.11048513 L5.99988884,5.46664174 Z" id="Combined-Shape" fill="#FFFFFF"></path>
            </g>
        </g>
    </g>
</svg>