<?xml version="1.0" encoding="UTF-8"?>
<svg width="48px" height="152px" viewBox="0 0 48 152" version="1.1" xmlns="http://www.w3.org/2000/svg" xmlns:xlink="http://www.w3.org/1999/xlink">
    <!-- Generator: Sketch 44.1 (41455) - http://www.bohemiancoding.com/sketch -->
    <title>total</title>
    <desc>Created with Sketch.</desc>
    <defs></defs>
    <g id="symbol" stroke="none" stroke-width="1" fill="none" fill-rule="evenodd">
        <g id="total">
            <path d="M24,45 C12.4206015,45 3,35.5793985 3,24 C3,12.4206015 12.4206015,3 24,3 C35.5792737,3 45,12.4206015 45,24 C45,35.5793985 35.5792737,45 24,45 M46.1133271,14.6575546 C47.3652338,17.617438 48,20.7607993 48,24 C48,27.2392007 47.364989,30.3823172 46.1130823,33.342323 C44.9043827,36.2004916 43.1740145,38.7668581 40.9704481,40.9705525 C38.7668816,43.1740022 36.2003993,44.9043748 33.3423603,46.1131998 C30.3824846,47.3651098 27.2390089,48 23.9999388,48 C20.7607463,48 17.6172706,47.3651098 14.6575173,46.1131998 C11.7993559,44.9044972 9.23287357,43.1740022 7.02930714,40.9705525 C4.82574071,38.7668581 3.09549492,36.2004916 1.88667294,33.342323 C0.634643778,30.3823172 0,27.2392007 0,24 C0,20.7607993 0.634643778,17.617438 1.88667294,14.6575546 C3.09549492,11.799386 4.82586311,9.23277471 7.02942954,7.02932506 C9.23287357,4.82575302 11.7994783,3.09550281 14.6575173,1.88667775 C17.6175154,0.634645396 20.7607463,0 23.9999388,0 C27.2390089,0 30.3824846,0.634645396 33.3423603,1.88667775 C36.2003993,3.09550281 38.7671264,4.82563062 40.9705705,7.02932506 C43.1741369,9.23289711 44.9043827,11.799386 46.1133271,14.6575546 Z M36.0042779,14.2463866 L20.3176218,29.8110653 L11.4913609,21.0534211 C10.8290547,20.3962546 9.75523987,20.3962546 9.0929337,21.0534211 C8.43062753,21.7105875 8.43062753,22.7760691 9.0929337,23.4333569 L19.1184694,33.3810906 C19.4496837,33.7096131 19.8837139,33.8738136 20.3177442,33.8738136 C20.7518968,33.8738136 21.1859271,33.7096131 21.5171413,33.3810906 L38.4030722,16.6262011 C39.0655008,15.9690346 39.0655008,14.903553 38.4030722,14.2463866 C37.7403989,13.5890987 36.6667064,13.5890987 36.0042779,14.2463866 Z" id="Combined-Shape" fill="#7ED321"></path>
            <path d="M23.6464466,74.232233 L33.1923882,64.6862915 C33.7781746,64.1005051 34.7279221,64.1005051 35.3137085,64.6862915 C35.8994949,65.2720779 35.8994949,66.2218254 35.3137085,66.8076118 L25.767767,76.3535534 L34.9601551,85.5459415 C35.5459415,86.131728 35.5459415,87.0814755 34.9601551,87.6672619 C34.3743687,88.2530483 33.4246212,88.2530483 32.8388348,87.6672619 L23.6464466,78.4748737 L14.8076118,87.3137085 C14.2218254,87.8994949 13.2720779,87.8994949 12.6862915,87.3137085 C12.1005051,86.7279221 12.1005051,85.7781746 12.6862915,85.1923882 L21.5251263,76.3535534 L12.3327381,67.1611652 C11.7469517,66.5753788 11.7469517,65.6256313 12.3327381,65.0398449 C12.9185245,64.4540585 13.868272,64.4540585 14.4540585,65.0398449 L23.6464466,74.232233 Z M46.1133271,66.6575546 C47.3652338,69.617438 48,72.7607993 48,76 C48,79.2392007 47.364989,82.3823172 46.1130823,85.342323 C44.9043827,88.2004916 43.1740145,90.7668581 40.9704481,92.9705525 C38.7668816,95.1740022 36.2003993,96.9043748 33.3423603,98.1131998 C30.3824846,99.3651098 27.2390089,100 23.9999388,100 C20.7607463,100 17.6172706,99.3651098 14.6575173,98.1131998 C11.7993559,96.9044972 9.23287357,95.1740022 7.02930714,92.9705525 C4.82574071,90.7668581 3.09549492,88.2004916 1.88667294,85.342323 C0.634643778,82.3823172 0,79.2392007 0,76 C0,72.7607993 0.634643778,69.617438 1.88667294,66.6575546 C3.09549492,63.799386 4.82586311,61.2327747 7.02942954,59.0293251 C9.23287357,56.825753 11.7994783,55.0955028 14.6575173,53.8866778 C17.6175154,52.6346454 20.7607463,52 23.9999388,52 C27.2390089,52 30.3824846,52.6346454 33.3423603,53.8866778 C36.2003993,55.0955028 38.7671264,56.8256306 40.9705705,59.0293251 C43.1741369,61.2328971 44.9043827,63.799386 46.1133271,66.6575546 Z M24,97 C35.5792737,97 45,87.5793985 45,76 C45,64.4206015 35.5792737,55 24,55 C12.4206015,55 3,64.4206015 3,76 C3,87.5793985 12.4206015,97 24,97 Z" id="Combined-Shape" fill="#D02A01"></path>
            <path d="M46.1133271,118.657555 C47.3652338,121.617438 48,124.760799 48,128 C48,131.239201 47.364989,134.382317 46.1130823,137.342323 C44.9043827,140.200492 43.1740145,142.766858 40.9704481,144.970553 C38.7668816,147.174002 36.2003993,148.904375 33.3423603,150.1132 C30.3824846,151.36511 27.2390089,152 23.9999388,152 C20.7607463,152 17.6172706,151.36511 14.6575173,150.1132 C11.7993559,148.904497 9.23287357,147.174002 7.02930714,144.970553 C4.82574071,142.766858 3.09549492,140.200492 1.88667294,137.342323 C0.634643778,134.382317 0,131.239201 0,128 C0,124.760799 0.634643778,121.617438 1.88667294,118.657555 C3.09549492,115.799386 4.82586311,113.232775 7.02942954,111.029325 C9.23287357,108.825753 11.7994783,107.095503 14.6575173,105.886678 C17.6175154,104.634645 20.7607463,104 23.9999388,104 C27.2390089,104 30.3824846,104.634645 33.3423603,105.886678 C36.2003993,107.095503 38.7671264,108.825631 40.9705705,111.029325 C43.1741369,113.232897 44.9043827,115.799386 46.1133271,118.657555 Z M24,149 C35.5792737,149 45,139.579398 45,128 C45,116.420602 35.5792737,107 24,107 C12.4206015,107 3,116.420602 3,128 C3,139.579398 12.4206015,149 24,149 Z M25.5,117.5 L25.5,132.5 C25.5,133.328427 24.8284271,134 24,134 C23.1715729,134 22.5,133.328427 22.5,132.5 L22.5,117.5 C22.5,116.671573 23.1715729,116 24,116 C24.8284271,116 25.5,116.671573 25.5,117.5 Z M25.5,137.5 L25.5,138.5 C25.5,139.328427 24.8284271,140 24,140 C23.1715729,140 22.5,139.328427 22.5,138.5 L22.5,137.5 C22.5,136.671573 23.1715729,136 24,136 C24.8284271,136 25.5,136.671573 25.5,137.5 Z" id="Combined-Shape-Copy" fill="#FF4401"></path>
        </g>
    </g>
</svg>