<?xml version="1.0" encoding="UTF-8"?>
<svg width="56px" height="44px" viewBox="0 0 56 44" version="1.1" xmlns="http://www.w3.org/2000/svg" xmlns:xlink="http://www.w3.org/1999/xlink">
    <!-- Generator: Sketch 45.2 (43514) - http://www.bohemiancoding.com/sketch -->
    <title>pic_broken</title>
    <desc>Created with Sketch.</desc>
    <defs></defs>
    <g id="Symbols" stroke="none" stroke-width="1" fill="none" fill-rule="evenodd">
        <g id="1-copy-19" transform="translate(-166.000000, -122.000000)" fill="#B8B8B8">
            <g id="pic_broken" transform="translate(166.000000, 122.000000)">
                <path d="M35.8795355,26.2297323 L32.9412962,22.9775304 C32.5851118,22.549262 32.0422,22.220147 31.4268146,22.220147 C30.8234955,22.220147 30.395139,22.5120212 29.9126346,22.9153849 L27.704336,24.8395669 C27.2460397,25.1808626 26.8777134,25.4105914 26.3468681,25.4105914 C25.8402309,25.4105914 25.3755998,25.2181034 25.0436235,24.9141259 C24.9231105,24.8023261 24.7119488,24.5974245 24.5369109,24.4174277 L18.1720456,17.3292754 C17.7013813,16.770742 16.9896156,16.4171103 16.1991923,16.4171103 C15.4087689,16.4171103 14.6726442,16.8204739 14.2141971,17.3665937 L2.40739389,32.0146918 L2.40739389,4.30138189 C2.40739389,3.2958046 2.95030563,2.48271533 3.61403202,2.48271533 L50.7150758,2.48271533 C51.3788022,2.48271533 51.873373,3.3019338 51.873373,4.30138189 L51.873373,22.549262 C52.7483365,23.0520894 53.562591,23.6664063 54.2866493,24.3676958 L54.2866493,4.09019592 C54.2866493,1.83115772 52.6637964,0 50.6667349,0 L3.61991438,0 C1.62292828,0 0,1.83115772 0,4.09019592 L0,37.7932117 C0,40.0522499 1.62292828,41.8834076 3.61991438,41.8834076 L36.6033675,41.8834076 C34.7209367,39.6612998 33.5867722,36.7628072 33.5867722,33.584854 C33.5808899,30.8478931 34.4313435,28.3030323 35.8795355,26.2297323 L35.8795355,26.2297323 Z M45.9126561,40.2943922 C44.9956111,40.2943922 44.2535287,39.5310348 44.2535287,38.5875254 C44.2535287,37.6440936 44.9956111,36.8806586 45.9126561,36.8806586 C46.8297011,36.8806586 47.5717835,37.6440936 47.5717835,38.5875254 C47.5717835,39.5310348 46.8297011,40.2943922 45.9126561,40.2943922 L45.9126561,40.2943922 Z M44.4284912,28.4145218 C44.4284912,27.5768381 45.0980999,26.8877294 45.9126561,26.8877294 C46.7272122,26.8877294 47.396821,27.5768381 47.396821,28.4145218 L47.396821,34.2925055 C47.396821,35.1304995 46.7272122,35.8193754 45.9126561,35.8193754 C45.0980999,35.8193754 44.4284912,35.1304995 44.4284912,34.2925055 L44.4284912,28.4145218 Z M45.876457,23.17607 C40.2895716,23.17607 35.7587209,27.8375232 35.7587209,33.591216 C35.7587209,39.3385468 40.2895716,44 45.876457,44 C51.4692247,44 56,39.3385468 56,33.591216 C55.9941176,27.8375232 51.4630406,23.17607 45.876457,23.17607 L45.876457,23.17607 Z"></path>
            </g>
        </g>
    </g>
</svg>