<?xml version="1.0" encoding="UTF-8"?>
<svg width="42px" height="42px" viewBox="0 0 42 42" version="1.1" xmlns="http://www.w3.org/2000/svg" xmlns:xlink="http://www.w3.org/1999/xlink">
    <!-- Generator: Sketch 46.2 (44496) - http://www.bohemiancoding.com/sketch -->
    <title>Group 14</title>
    <desc>Created with Sketch.</desc>
    <defs>
        <circle id="path-1" cx="21" cy="21" r="21"></circle>
    </defs>
    <g id="email-mode" stroke="none" stroke-width="1" fill="none" fill-rule="evenodd">
        <g id="Subscription-Confirmed-" transform="translate(-821.000000, -1016.000000)">
            <g id="contact" transform="translate(0.000000, 801.000000)">
                <g id="Group-17" transform="translate(360.000000, 200.000000)">
                    <g id="email" transform="translate(461.000000, 8.000000)">
                        <g id="Group-14" transform="translate(0.000000, 7.000000)">
                            <g id="Oval-3-Copy">
                                <use fill="#FFFFFF" fill-rule="evenodd" xlink:href="#path-1"></use>
                                <circle stroke="#E6E6E6" stroke-width="1" cx="21" cy="21" r="20.5"></circle>
                            </g>
                            <path d="M27.5674574,32.6829226 C26.2374196,33.3750234 24.6413196,32.8958167 23.8965561,31.6182181 C23.3645878,30.6067371 23.524077,29.3823231 24.2157294,28.5837752 L23.2049037,26.6139199 C22.6729354,26.7737074 22.140928,26.8801545 21.5556927,26.8801545 C19.0020341,26.8801545 16.8739268,25.0700867 16.4483365,22.6212586 L14.2670012,22.6212586 C13.8945221,23.6327396 12.8836964,24.4313264 11.7133426,24.4313264 C10.2236208,24.4313264 9,23.2068734 9,21.7162247 C9,20.2255371 10.2236208,19.001123 11.7133426,19.001123 C12.8836964,19.001123 13.8945221,19.6932238 14.2670012,20.7578893 L16.4483365,20.7578893 C16.9270769,18.4154693 19.0020341,16.658742 21.5556927,16.658742 C21.981283,16.658742 22.4068732,16.7120435 22.7793134,16.765189 L23.630494,14.6890426 C22.7793134,13.9436403 22.5132513,12.7192263 22.9921086,11.6545608 C23.5773829,10.2703592 25.1734439,9.63155989 26.5034817,10.2170577 C27.8866306,10.8026724 28.5251719,12.3998071 27.9399366,13.7307072 C27.4610793,14.7955287 26.4502147,15.434289 25.386239,15.3809875 L24.4817915,17.5637759 C25.8650963,18.4688098 26.7694269,20.0659445 26.7694269,21.8226718 C26.7694269,23.4198065 26.0246244,24.8038521 24.9073818,25.7621875 L25.9182464,27.7318479 C26.982339,27.5722553 28.0995816,28.1046075 28.6847001,29.1160495 C29.3763525,30.287357 28.8974952,31.9908218 27.5674574,32.6829226" id="Fill-1" fill="#B8B8B8"></path>
                        </g>
                    </g>
                </g>
            </g>
        </g>
    </g>
</svg>