<?xml version="1.0" encoding="UTF-8"?>
<svg width="100px" height="100px" viewBox="0 0 100 100" version="1.1" xmlns="http://www.w3.org/2000/svg" xmlns:xlink="http://www.w3.org/1999/xlink">
    <!-- Generator: Sketch 46.2 (44496) - http://www.bohemiancoding.com/sketch -->
    <title>avatar</title>
    <desc>Created with Sketch.</desc>
    <defs></defs>
    <g id="Symbols" stroke="none" stroke-width="1" fill="none" fill-rule="evenodd">
        <g id="avatar">
            <rect id="Rectangle-3" fill="#D8D8D8" x="0" y="0" width="100" height="100"></rect>
            <path d="M67.801624,59.4918954 C68.7670192,58.6464547 70.1455735,56.9976964 70.8528618,55.1351379 C71.2235251,54.1871635 71.339005,53.388161 71.2966136,52.7199454 L72.3925241,52.7199454 L70.3768465,50.5202997 C69.8486252,49.9436247 69.6051359,48.7122957 69.8658532,47.9365121 L69.8706562,47.9208958 C70.6109387,45.6221067 71.0739024,43.614686 71.2859636,41.783052 C71.5388499,39.7141932 71.5286175,38.0090311 71.2529693,36.4277725 C70.9344077,34.2670649 69.3641526,30.6594815 66.9699808,27.9220989 C65.4874319,26.1879644 64.1202585,25.3391334 62.799653,25.3391334 C62.6396935,25.3391334 62.4802561,25.3523867 62.3248907,25.3780715 C62.1025971,25.4081741 61.878633,25.4234822 61.6592629,25.4234822 C61.0013616,25.4234822 60.3601663,25.2881747 59.7533226,25.0220803 C59.0187828,24.6548904 58.4106861,24.1395507 57.9449033,23.4894172 L57.8959339,23.4203765 L57.6822022,23.1908572 C56.9917243,22.2485335 55.6127523,21.5948041 53.5803688,21.2460046 C52.4207669,21.0385742 51.0426302,20.9370679 49.3765247,20.9370679 C48.6811394,20.9370679 48.020419,20.9539171 47.4547137,20.9699445 C43.0184481,21.0225469 39.3734181,21.9945623 36.6211124,23.8590728 C33.9887764,25.5738924 32.0327182,28.175351 30.8058748,31.5914286 L30.7083538,31.8518724 L30.7022979,31.8699545 C29.7401395,34.7052475 29.2559801,37.7172519 29.3017126,40.5806954 C29.3588261,43.3727353 29.8368252,45.9275503 30.6847567,47.9750393 L30.7226583,48.0665799 L30.7740291,48.151237 C30.9857771,48.5019886 31.0640862,48.958356 30.9776329,49.342395 L30.969802,49.3769154 L30.9641637,49.4118467 C30.8732207,49.9535904 30.6558345,50.2935543 30.3804995,50.7237232 C29.6654848,51.8410117 29.1397693,52.9439168 29.957108,55.1298982 L29.9685934,55.1591789 C30.651658,56.8600259 31.9030383,58.4284422 32.8186289,59.3098415 L33.225732,59.9161054 L33.4324682,59.9161054 C34.4880756,61.075517 35.1581931,62.736604 35.8637063,64.4856357 L35.917583,64.6147788 C37.0040964,67.2049362 38.3558168,70.4283778 41.0166573,72.0575129 L41.070534,72.0902867 L41.1272298,72.118129 C41.7642487,72.4303534 42.1448312,73.0731924 42.1448312,73.8372636 C42.1448312,76.3704007 41.7667546,78.4287801 39.9211645,80.2407909 L39.90686,80.2553799 C38.5792589,81.5994138 36.6676803,82.4549229 34.5223228,82.6644081 C31.0224257,82.9216669 25.904244,84.6935068 22.3399247,88.0768105 C19.4808053,90.7723783 18.0288492,94.1282507 18.0288492,98.0479557 C18.0288492,99.1062719 17.0977012,100 15.9952128,100 C14.9136068,100 14,99.0938405 14,98.0208325 C14,93.0286333 15.8646975,88.7159509 19.5419909,85.2027849 C23.7494894,81.2517444 29.9547066,79.0995642 34.2343539,78.7227169 L34.2673482,78.719121 C35.3563674,78.5965532 36.3466128,78.1659733 37.0558848,77.5065933 L37.0734261,77.4902577 L37.0902365,77.4734085 C37.6534359,76.9110143 37.910812,76.2492712 38.0274404,75.7933148 L38.2345942,74.9855794 L37.581287,74.4550343 C34.8257446,72.2174778 33.4508447,69.1649942 32.1734659,65.9713469 L32.1623982,65.9440183 C31.455632,64.2852943 31.0555244,63.3787238 30.7206745,62.8601992 L30.7206745,62.7871517 L30.5811798,62.6620153 C30.5668753,62.6435223 30.5529885,62.6262621 30.5391017,62.6094129 L30.3054271,62.3260582 L30.2042517,62.2898941 L30.0076435,62.0723952 L29.9404021,62.0723952 C28.688291,60.8505182 27.0849372,58.7984059 26.236588,56.5522194 C25.1594718,53.7842205 25.2181514,51.3478637 26.4058402,49.2982172 L26.7012223,48.7889391 L26.5143245,48.2322982 C25.7239241,45.8785437 25.3229813,43.3281464 25.3229813,40.6520992 L25.3229813,40.634839 C25.2773531,37.2376654 25.8182083,33.7862456 26.8871805,30.6470501 L27.028659,30.3697571 L27.0584165,30.284689 C28.5124608,26.1016635 30.991833,22.8352769 34.4284562,20.575837 C37.7790438,18.3263627 42.1288561,17.1300678 47.3686781,17.0140753 L47.4914668,17.0124314 C47.944929,17.0064726 48.436084,17 48.9543862,17 C50.4336983,17 52.3775402,17.0465408 54.2892232,17.4085937 L54.3100013,17.4126005 C57.4787028,17.9623579 59.649328,19.0953655 60.9455011,20.8772737 L61.3900883,21.4876472 L62.1503135,21.4226133 C62.35256,21.4053531 62.5573123,21.3965175 62.7584102,21.3965175 C65.9250235,21.3965175 68.4439678,23.5613347 69.9991876,25.3768386 C72.7289402,28.4911712 74.7914988,33.1677557 75.2144727,35.8964055 L75.2197977,35.92733 C75.5738595,37.8989975 75.5880595,39.9819315 75.263442,42.2946931 C75.0349881,44.0593412 74.6214114,45.9961801 74.0655208,47.9092863 L73.9003407,48.4779476 L74.2221391,48.9771572 C75.5835698,51.0893719 75.7181571,53.6212762 74.6210981,56.5032128 C73.6833721,58.9272409 71.9075294,61.1898657 70.5653105,62.354106 L70.5334648,62.3814347 L70.4298879,62.4845848 L70.0154759,62.9151647 L70.0154759,63.0175956 C69.6455435,63.5859487 69.2539977,64.4839919 68.6426643,65.9543949 L68.6345201,65.9746346 C67.5728568,68.6521202 66.2517292,71.9843626 63.3922967,74.3152063 L62.8069619,74.7920188 L62.9231726,75.5308162 C63.0312393,76.2195796 63.3735025,76.8829665 63.9131047,77.449573 L63.9432799,77.4800865 C64.6105782,78.1371036 65.6346531,78.5881286 66.7538475,78.71871 L66.7909138,78.7222032 C69.9735022,79.0043249 76.646486,80.6887337 81.4678239,85.2107985 C85.1357201,88.7163619 87,93.0379825 87,98.0475447 C87,99.105861 86.0880638,100 85.0084417,100 C83.8913355,100 83.016048,99.1304156 83.016048,98.0208325 C83.016048,94.1623601 81.5603331,90.8172753 78.6886843,88.0786598 C75.0950251,84.6926848 69.9489653,82.9216669 66.4320491,82.6635861 C64.3581095,82.4572859 62.4569722,81.5976672 61.0772693,80.2412019 L61.0638001,80.2279485 C60.0261517,79.2371319 58.6060413,76.023656 58.8442056,73.7850721 C58.9368192,72.9146658 59.2537102,72.320217 59.8132552,71.9683353 C62.4305559,70.422008 63.7719394,67.4253117 64.920056,64.4853275 L65.0233197,64.2379316" id="Fill-1" fill="#999999"></path>
        </g>
    </g>
</svg>