<?xml version="1.0" encoding="UTF-8"?>
<svg width="144px" height="58px" viewBox="0 0 144 58" version="1.1" xmlns="http://www.w3.org/2000/svg" xmlns:xlink="http://www.w3.org/1999/xlink">
    <!-- Generator: Sketch 45.2 (43514) - http://www.bohemiancoding.com/sketch -->
    <title>Group 11</title>
    <desc>Created with Sketch.</desc>
    <defs></defs>
    <g id="product" stroke="none" stroke-width="1" fill="none" fill-rule="evenodd">
        <g id="about_news-detail-" transform="translate(-881.000000, -2790.000000)">
            <g id="contact" transform="translate(0.000000, 2275.000000)">
                <g id="Group-11" transform="translate(881.000000, 515.000000)">
                    <path d="M0,29 L144,29 L144,54 L144,54 C144,56.209139 142.209139,58 140,58 L4,58 L4,58 C1.790861,58 2.705415e-16,56.209139 0,54 L0,29 Z" id="Rectangle-7" fill="#000000"></path>
                    <path d="M4,-1.77630263e-15 L19.8752441,-1.77627552e-15 L140,-1.77630263e-15 L140,-1.77635684e-15 C142.209139,-2.18217371e-15 144,1.790861 144,4 L144,29 L0,29 L0,4 L0,4 C-2.705415e-16,1.790861 1.790861,4.05816873e-16 4,0 Z" id="Rectangle-7" fill="#B3BABC"></path>
                    <path d="M6.81542969,44.9912109 C6.84505223,45.5201849 6.96988822,45.9497054 7.18994141,46.2797852 C7.60888881,46.8976268 8.34732544,47.206543 9.40527344,47.206543 C9.87923414,47.206543 10.3108704,47.1388353 10.7001953,47.003418 C11.4534543,46.7410469 11.8300781,46.271325 11.8300781,45.5942383 C11.8300781,45.0864232 11.6713883,44.7246105 11.3540039,44.5087891 C11.0323877,44.2971995 10.528812,44.1131193 9.84326172,43.956543 L8.58007812,43.6708984 C7.75487869,43.4846996 7.17090015,43.2794608 6.828125,43.0551758 C6.23567412,42.6658509 5.93945312,42.0839882 5.93945312,41.3095703 C5.93945312,40.4716755 6.22932653,39.7840196 6.80908203,39.246582 C7.38883753,38.7091444 8.20979287,38.4404297 9.27197266,38.4404297 C10.2495166,38.4404297 11.0799933,38.6763486 11.7634277,39.1481934 C12.4468621,39.6200382 12.7885742,40.3743438 12.7885742,41.4111328 L11.6015625,41.4111328 C11.5380856,40.9117814 11.4026703,40.5288099 11.1953125,40.262207 C10.8102194,39.775551 10.1564174,39.5322266 9.23388672,39.5322266 C8.48909133,39.5322266 7.95377767,39.6888005 7.62792969,40.0019531 C7.3020817,40.3151057 7.13916016,40.6790344 7.13916016,41.09375 C7.13916016,41.5507835 7.32958794,41.8850901 7.71044922,42.0966797 C7.96012495,42.232097 8.5250607,42.4013662 9.40527344,42.6044922 L10.7128906,42.902832 C11.3434276,43.046713 11.8300764,43.2434883 12.1728516,43.4931641 C12.7653024,43.9290386 13.0615234,44.5616821 13.0615234,45.3911133 C13.0615234,46.4236705 12.6859575,47.1621072 11.9348145,47.6064453 C11.1836714,48.0507835 10.3108774,48.2729492 9.31640625,48.2729492 C8.15689524,48.2729492 7.24918948,47.9767282 6.59326172,47.3842773 C5.93733396,46.7960583 5.61572259,45.9983774 5.62841797,44.9912109 L6.81542969,44.9912109 Z M18.9997559,41.5634766 C19.4800643,41.9358743 19.7688797,42.5769811 19.8662109,43.4868164 L18.7553711,43.4868164 C18.6876624,43.067869 18.5332043,42.7198093 18.2919922,42.442627 C18.05078,42.1654446 17.6635769,42.0268555 17.1303711,42.0268555 C16.4025029,42.0268555 15.8820003,42.3823207 15.5688477,43.0932617 C15.3657216,43.554527 15.2641602,44.1236945 15.2641602,44.8007812 C15.2641602,45.4820998 15.4080389,46.055499 15.6958008,46.5209961 C15.9835626,46.9864932 16.4363576,47.2192383 17.0541992,47.2192383 C17.5281599,47.2192383 17.9037258,47.0743016 18.1809082,46.7844238 C18.4580906,46.4945461 18.6495763,46.0978215 18.7553711,45.5942383 L19.8662109,45.5942383 C19.7392572,46.49561 19.4218775,47.1547017 18.9140625,47.5715332 C18.4062475,47.9883647 17.7566771,48.1967773 16.965332,48.1967773 C16.0766557,48.1967773 15.3678412,47.8719922 14.8388672,47.2224121 C14.3098932,46.572832 14.0454102,45.7613981 14.0454102,44.7880859 C14.0454102,43.5947206 14.3352836,42.6658562 14.9150391,42.0014648 C15.4947946,41.3370735 16.2332312,41.0048828 17.1303711,41.0048828 C17.8963254,41.0048828 18.5194475,41.1910789 18.9997559,41.5634766 Z M21.0405273,41.2016602 L22.1259766,41.2016602 L22.1259766,42.3759766 C22.2148442,42.1474598 22.4327782,41.8692236 22.7797852,41.5412598 C23.1267921,41.2132959 23.5266904,41.0493164 23.9794922,41.0493164 C24.0006511,41.0493164 24.0366208,41.0514323 24.0874023,41.0556641 C24.1381838,41.0598959 24.2249343,41.0683593 24.3476562,41.0810547 L24.3476562,42.2871094 C24.2799476,42.274414 24.2175296,42.2659505 24.1604004,42.2617188 C24.1032712,42.257487 24.0408532,42.2553711 23.9731445,42.2553711 C23.3976208,42.2553711 22.9554052,42.4405092 22.6464844,42.810791 C22.3375636,43.1810728 22.1831055,43.6074195 22.1831055,44.0898438 L22.1831055,48 L21.0405273,48 L21.0405273,41.2016602 Z M26.5756836,46.9716797 C26.8168957,47.1621103 27.1025374,47.2573242 27.4326172,47.2573242 C27.8346374,47.2573242 28.2239565,47.1642262 28.6005859,46.9780273 C29.2353547,46.6691065 29.5527344,46.163415 29.5527344,45.4609375 L29.5527344,44.5405273 C29.4130852,44.629395 29.2332368,44.7034502 29.0131836,44.7626953 C28.7931304,44.8219404 28.5773123,44.8642577 28.3657227,44.8896484 L27.6738281,44.9785156 C27.2591125,45.0335289 26.9480805,45.1202794 26.7407227,45.2387695 C26.3894839,45.4376638 26.2138672,45.7550434 26.2138672,46.190918 C26.2138672,46.5209977 26.3344715,46.781249 26.5756836,46.9716797 Z M28.9814453,43.8803711 C29.2438164,43.8465168 29.4194331,43.7364918 29.5083008,43.550293 C29.5590823,43.44873 29.5844727,43.3027353 29.5844727,43.1123047 C29.5844727,42.7229798 29.4458835,42.4405119 29.1687012,42.2648926 C28.8915188,42.0892732 28.4947942,42.0014648 27.9785156,42.0014648 C27.381833,42.0014648 26.9586601,42.1622705 26.7089844,42.4838867 C26.5693352,42.661622 26.4783531,42.926105 26.4360352,43.2773438 L25.3696289,43.2773438 C25.3907879,42.4394489 25.6626764,41.8565283 26.1853027,41.5285645 C26.707929,41.2006006 27.3141242,41.0366211 28.0039063,41.0366211 C28.8037149,41.0366211 29.4532853,41.1889633 29.9526367,41.4936523 C30.4477564,41.7983414 30.6953125,42.272295 30.6953125,42.9155273 L30.6953125,46.8320312 C30.6953125,46.9505214 30.7196449,47.0457353 30.7683105,47.1176758 C30.8169762,47.1896162 30.9195956,47.2255859 31.0761719,47.2255859 C31.1269534,47.2255859 31.1840817,47.2224121 31.2475586,47.2160645 C31.3110355,47.2097168 31.3787431,47.2001954 31.4506836,47.1875 L31.4506836,48.0317383 C31.2729483,48.0825198 31.137533,48.1142577 31.0444336,48.1269531 C30.9513342,48.1396485 30.8243823,48.1459961 30.6635742,48.1459961 C30.2700176,48.1459961 29.9843759,48.0063491 29.8066406,47.7270508 C29.7135412,47.5789381 29.6479494,47.3694675 29.6098633,47.0986328 C29.3771147,47.4033218 29.0428082,47.6678049 28.6069336,47.8920898 C28.171059,48.1163748 27.6907578,48.2285156 27.1660156,48.2285156 C26.5354786,48.2285156 26.0202657,48.0370299 25.6203613,47.6540527 C25.220457,47.2710756 25.0205078,46.7918323 25.0205078,46.2163086 C25.0205078,45.5857716 25.2172832,45.0970069 25.6108398,44.75 C26.0043965,44.4029931 26.5206674,44.1892908 27.159668,44.1088867 L28.9814453,43.8803711 Z M32.7963867,39.3037109 L33.9516602,39.3037109 L33.9516602,41.2016602 L35.0371094,41.2016602 L35.0371094,42.1347656 L33.9516602,42.1347656 L33.9516602,46.5717773 C33.9516602,46.8087577 34.032063,46.9674475 34.1928711,47.0478516 C34.2817387,47.0944013 34.4298492,47.1176758 34.637207,47.1176758 C34.6922203,47.1176758 34.7514645,47.1166178 34.8149414,47.114502 C34.8784183,47.1123861 34.9524735,47.1070964 35.0371094,47.0986328 L35.0371094,48 C34.9059238,48.0380861 34.7694506,48.0655924 34.6276855,48.0825195 C34.4859205,48.0994467 34.3325204,48.1079102 34.1674805,48.1079102 C33.6342747,48.1079102 33.2724619,47.9714369 33.0820312,47.6984863 C32.8916006,47.4255357 32.7963867,47.0711285 32.7963867,46.6352539 L32.7963867,42.1347656 L31.8759766,42.1347656 L31.8759766,41.2016602 L32.7963867,41.2016602 L32.7963867,39.3037109 Z M40.6706543,41.5634766 C41.1509627,41.9358743 41.4397782,42.5769811 41.5371094,43.4868164 L40.4262695,43.4868164 C40.3585609,43.067869 40.2041028,42.7198093 39.9628906,42.442627 C39.7216785,42.1654446 39.3344753,42.0268555 38.8012695,42.0268555 C38.0734013,42.0268555 37.5528987,42.3823207 37.2397461,43.0932617 C37.0366201,43.554527 36.9350586,44.1236945 36.9350586,44.8007812 C36.9350586,45.4820998 37.0789374,46.055499 37.3666992,46.5209961 C37.6544611,46.9864932 38.107256,47.2192383 38.7250977,47.2192383 C39.1990584,47.2192383 39.5746243,47.0743016 39.8518066,46.7844238 C40.128989,46.4945461 40.3204747,46.0978215 40.4262695,45.5942383 L41.5371094,45.5942383 C41.4101556,46.49561 41.092776,47.1547017 40.5849609,47.5715332 C40.0771459,47.9883647 39.4275756,48.1967773 38.6362305,48.1967773 C37.7475542,48.1967773 37.0387396,47.8719922 36.5097656,47.2224121 C35.9807916,46.572832 35.7163086,45.7613981 35.7163086,44.7880859 C35.7163086,43.5947206 36.006182,42.6658562 36.5859375,42.0014648 C37.165693,41.3370735 37.9041296,41.0048828 38.8012695,41.0048828 C39.5672239,41.0048828 40.1903459,41.1910789 40.6706543,41.5634766 Z M42.6796875,38.6435547 L43.8222656,38.6435547 L43.8222656,42.1220703 C44.0931003,41.7792952 44.3364247,41.5380866 44.5522461,41.3984375 C44.920412,41.1572254 45.3795545,41.0366211 45.9296875,41.0366211 C46.915695,41.0366211 47.5843081,41.381507 47.9355469,42.0712891 C48.1259775,42.4479185 48.2211914,42.970537 48.2211914,43.6391602 L48.2211914,48 L47.046875,48 L47.046875,43.715332 C47.046875,43.2159806 46.9833991,42.8499361 46.8564453,42.6171875 C46.6490875,42.2447898 46.2597685,42.0585938 45.6884766,42.0585938 C45.2145159,42.0585938 44.7849954,42.2215153 44.3999023,42.5473633 C44.0148093,42.8732113 43.8222656,43.4889278 43.8222656,44.3945312 L43.8222656,48 L42.6796875,48 L42.6796875,38.6435547 Z M54.7592773,46.9716797 C55.0004895,47.1621103 55.2861312,47.2573242 55.6162109,47.2573242 C56.0182312,47.2573242 56.4075502,47.1642262 56.7841797,46.9780273 C57.4189485,46.6691065 57.7363281,46.163415 57.7363281,45.4609375 L57.7363281,44.5405273 C57.596679,44.629395 57.4168305,44.7034502 57.1967773,44.7626953 C56.9767242,44.8219404 56.760906,44.8642577 56.5493164,44.8896484 L55.8574219,44.9785156 C55.4427063,45.0335289 55.1316742,45.1202794 54.9243164,45.2387695 C54.5730777,45.4376638 54.3974609,45.7550434 54.3974609,46.190918 C54.3974609,46.5209977 54.5180652,46.781249 54.7592773,46.9716797 Z M57.1650391,43.8803711 C57.4274102,43.8465168 57.6030269,43.7364918 57.6918945,43.550293 C57.742676,43.44873 57.7680664,43.3027353 57.7680664,43.1123047 C57.7680664,42.7229798 57.6294773,42.4405119 57.3522949,42.2648926 C57.0751125,42.0892732 56.678388,42.0014648 56.1621094,42.0014648 C55.5654267,42.0014648 55.1422539,42.1622705 54.8925781,42.4838867 C54.752929,42.661622 54.6619468,42.926105 54.6196289,43.2773438 L53.5532227,43.2773438 C53.5743816,42.4394489 53.8462702,41.8565283 54.3688965,41.5285645 C54.8915228,41.2006006 55.4977179,41.0366211 56.1875,41.0366211 C56.9873087,41.0366211 57.636879,41.1889633 58.1362305,41.4936523 C58.6313501,41.7983414 58.8789062,42.272295 58.8789062,42.9155273 L58.8789062,46.8320312 C58.8789062,46.9505214 58.9032387,47.0457353 58.9519043,47.1176758 C59.0005699,47.1896162 59.1031893,47.2255859 59.2597656,47.2255859 C59.3105471,47.2255859 59.3676755,47.2224121 59.4311523,47.2160645 C59.4946292,47.2097168 59.5623369,47.2001954 59.6342773,47.1875 L59.6342773,48.0317383 C59.4565421,48.0825198 59.3211268,48.1142577 59.2280273,48.1269531 C59.1349279,48.1396485 59.0079761,48.1459961 58.847168,48.1459961 C58.4536113,48.1459961 58.1679696,48.0063491 57.9902344,47.7270508 C57.897135,47.5789381 57.8315432,47.3694675 57.793457,47.0986328 C57.5607085,47.4033218 57.2264019,47.6678049 56.7905273,47.8920898 C56.3546528,48.1163748 55.8743516,48.2285156 55.3496094,48.2285156 C54.7190724,48.2285156 54.2038594,48.0370299 53.8039551,47.6540527 C53.4040507,47.2710756 53.2041016,46.7918323 53.2041016,46.2163086 C53.2041016,45.5857716 53.4008769,45.0970069 53.7944336,44.75 C54.1879902,44.4029931 54.7042611,44.1892908 55.3432617,44.1088867 L57.1650391,43.8803711 Z M60.7514648,41.2016602 L61.8369141,41.2016602 L61.8369141,42.1665039 C62.1585303,41.7687155 62.4991844,41.4830738 62.8588867,41.3095703 C63.218589,41.1360668 63.6184874,41.0493164 64.0585938,41.0493164 C65.0234423,41.0493164 65.6751285,41.3857388 66.0136719,42.0585938 C66.1998707,42.4267597 66.2929688,42.9536099 66.2929688,43.6391602 L66.2929688,48 L65.1313477,48 L65.1313477,43.715332 C65.1313477,43.3006164 65.0699876,42.9663099 64.9472656,42.7124023 C64.7441396,42.2892231 64.3759792,42.0776367 63.8427734,42.0776367 C63.5719388,42.0776367 63.349773,42.105143 63.1762695,42.1601562 C62.8631169,42.2532557 62.5880546,42.4394517 62.3510742,42.71875 C62.1606436,42.943035 62.0368655,43.1747221 61.9797363,43.4138184 C61.9226071,43.6529146 61.894043,43.9946267 61.894043,44.4389648 L61.894043,48 L60.7514648,48 L60.7514648,41.2016602 Z M69.168457,46.5083008 C69.4773778,46.9991887 69.9724901,47.2446289 70.6538086,47.2446289 C71.1827826,47.2446289 71.6175927,47.0171735 71.958252,46.5622559 C72.2989112,46.1073382 72.4692383,45.4545941 72.4692383,44.6040039 C72.4692383,43.7449501 72.2936215,43.1091329 71.9423828,42.6965332 C71.5911441,42.2839335 71.1573919,42.0776367 70.6411133,42.0776367 C70.0655896,42.0776367 69.5990415,42.2976866 69.2414551,42.737793 C68.8838687,43.1778993 68.7050781,43.8253538 68.7050781,44.6801758 C68.7050781,45.408044 68.8595362,46.0174129 69.168457,46.5083008 Z M71.7329102,41.4111328 C71.9360362,41.5380866 72.1666654,41.7602523 72.4248047,42.0776367 L72.4248047,38.6435547 L73.5229492,38.6435547 L73.5229492,48 L72.4946289,48 L72.4946289,47.0541992 C72.228026,47.4731466 71.9127622,47.7757152 71.5488281,47.9619141 C71.184894,48.1481129 70.7680688,48.2412109 70.2983398,48.2412109 C69.5408491,48.2412109 68.8849312,47.9227734 68.3305664,47.2858887 C67.7762017,46.649004 67.4990234,45.8016003 67.4990234,44.7436523 C67.4990234,43.753413 67.7518692,42.8954301 68.2575684,42.1696777 C68.7632675,41.4439254 69.4858351,41.0810547 70.425293,41.0810547 C70.9458034,41.0810547 71.3816714,41.1910796 71.7329102,41.4111328 Z M85.6533203,39.3544922 C86.3050163,39.9765656 86.6668291,40.6832643 86.7387695,41.4746094 L85.5073242,41.4746094 C85.3676751,40.8736949 85.0894389,40.3976255 84.6726074,40.0463867 C84.2557759,39.695148 83.6707394,39.5195312 82.9174805,39.5195312 C81.9991816,39.5195312 81.2575712,39.8422005 80.692627,40.4875488 C80.1276827,41.1328971 79.8452148,42.1220636 79.8452148,43.4550781 C79.8452148,44.5468805 80.1001765,45.4323697 80.6101074,46.1115723 C81.1200384,46.7907749 81.8806916,47.1303711 82.8920898,47.1303711 C83.8230841,47.1303711 84.5318986,46.77279 85.0185547,46.0576172 C85.276694,45.6809877 85.4692376,45.1858755 85.5961914,44.5722656 L86.8276367,44.5722656 C86.7176101,45.5540414 86.3536815,46.3771126 85.7358398,47.0415039 C84.9952762,47.8413126 83.9965883,48.2412109 82.7397461,48.2412109 C81.6564073,48.2412109 80.7465857,47.913252 80.0102539,47.2573242 C79.0411735,46.3898069 78.5566406,45.0504648 78.5566406,43.2392578 C78.5566406,41.8639254 78.9205693,40.7361698 79.6484375,39.855957 C80.4355508,38.899572 81.5209892,38.4213867 82.9047852,38.4213867 C84.0854551,38.4213867 85.0016243,38.7324188 85.6533203,39.3544922 Z M88.2114258,38.6435547 L89.3540039,38.6435547 L89.3540039,42.1220703 C89.6248386,41.7792952 89.868163,41.5380866 90.0839844,41.3984375 C90.4521503,41.1572254 90.9112928,41.0366211 91.4614258,41.0366211 C92.4474333,41.0366211 93.1160464,41.381507 93.4672852,42.0712891 C93.6577158,42.4479185 93.7529297,42.970537 93.7529297,43.6391602 L93.7529297,48 L92.5786133,48 L92.5786133,43.715332 C92.5786133,43.2159806 92.5151374,42.8499361 92.3881836,42.6171875 C92.1808258,42.2447898 91.7915068,42.0585938 91.2202148,42.0585938 C90.7462541,42.0585938 90.3167337,42.2215153 89.9316406,42.5473633 C89.5465476,42.8732113 89.3540039,43.4889278 89.3540039,44.3945312 L89.3540039,48 L88.2114258,48 L88.2114258,38.6435547 Z M99.675293,41.388916 C100.128095,41.6153169 100.472981,41.9083641 100.709961,42.2680664 C100.938478,42.6108416 101.09082,43.0107399 101.166992,43.4677734 C101.234701,43.780926 101.268555,44.28027 101.268555,44.9658203 L96.2856445,44.9658203 C96.3068035,45.6556024 96.469725,46.2089009 96.7744141,46.6257324 C97.0791031,47.0425639 97.5509408,47.2509766 98.1899414,47.2509766 C98.7866241,47.2509766 99.2626935,47.0542012 99.6181641,46.6606445 C99.8212901,46.4321278 99.9651688,46.1676447 100.049805,45.8671875 L101.17334,45.8671875 C101.143717,46.1168632 101.04533,46.3950994 100.878174,46.7019043 C100.711018,47.0087092 100.523764,47.2594391 100.316406,47.4541016 C99.9693993,47.7926449 99.5398789,48.0211583 99.027832,48.1396484 C98.7527656,48.2073571 98.4417335,48.2412109 98.0947266,48.2412109 C97.2483682,48.2412109 96.5310902,47.9333527 95.9428711,47.317627 C95.354652,46.7019012 95.0605469,45.8396865 95.0605469,44.730957 C95.0605469,43.6391547 95.3567679,42.7526076 95.9492188,42.0712891 C96.5416696,41.3899706 97.3160759,41.0493164 98.2724609,41.0493164 C98.7548852,41.0493164 99.2224912,41.1625151 99.675293,41.388916 Z M100.094238,44.0581055 C100.047689,43.5629858 99.9397795,43.1673192 99.7705078,42.8710938 C99.4573552,42.3209608 98.9347367,42.0458984 98.2026367,42.0458984 C97.6778945,42.0458984 97.2377947,42.2352683 96.8823242,42.6140137 C96.5268537,42.9927591 96.3385418,43.4741182 96.3173828,44.0581055 L100.094238,44.0581055 Z M107.162354,41.5634766 C107.642662,41.9358743 107.931477,42.5769811 108.028809,43.4868164 L106.917969,43.4868164 C106.85026,43.067869 106.695802,42.7198093 106.45459,42.442627 C106.213378,42.1654446 105.826175,42.0268555 105.292969,42.0268555 C104.565101,42.0268555 104.044598,42.3823207 103.731445,43.0932617 C103.528319,43.554527 103.426758,44.1236945 103.426758,44.8007812 C103.426758,45.4820998 103.570637,46.055499 103.858398,46.5209961 C104.14616,46.9864932 104.598955,47.2192383 105.216797,47.2192383 C105.690758,47.2192383 106.066323,47.0743016 106.343506,46.7844238 C106.620688,46.4945461 106.812174,46.0978215 106.917969,45.5942383 L108.028809,45.5942383 C107.901855,46.49561 107.584475,47.1547017 107.07666,47.5715332 C106.568845,47.9883647 105.919275,48.1967773 105.12793,48.1967773 C104.239253,48.1967773 103.530439,47.8719922 103.001465,47.2224121 C102.472491,46.572832 102.208008,45.7613981 102.208008,44.7880859 C102.208008,43.5947206 102.497881,42.6658562 103.077637,42.0014648 C103.657392,41.3370735 104.395829,41.0048828 105.292969,41.0048828 C106.058923,41.0048828 106.682045,41.1910789 107.162354,41.5634766 Z M109.145996,38.675293 L110.244141,38.675293 L110.244141,44.0898438 L113.176758,41.2016602 L114.636719,41.2016602 L112.03418,43.7470703 L114.782715,48 L113.322754,48 L111.202637,44.5722656 L110.244141,45.4482422 L110.244141,48 L109.145996,48 L109.145996,38.675293 Z" id="Scratch-and-Check" fill="#FFFFFF"></path>
                    <g id="Page-1" transform="translate(120.000000, 37.000000)" stroke="#FFFFFF">
                        <path d="M0,6.11718667 L16.9786667,6.11718667" id="Stroke-1"></path>
                        <polyline id="Stroke-3" points="12.1718667 0.469986667 17.7812 6.11665333 12.1718667 11.6886533"></polyline>
                    </g>
                    <path d="M13.2578125,10.6894531 C13.9596389,11.3593783 14.3492835,12.1204384 14.4267578,12.9726562 L13.1005859,12.9726562 C12.9501946,12.3255176 12.6505556,11.8128274 12.2016602,11.4345703 C11.7527647,11.0563132 11.1227254,10.8671875 10.3115234,10.8671875 C9.3225862,10.8671875 8.52392882,11.2146775 7.91552734,11.909668 C7.30712586,12.6046584 7.00292969,13.6699147 7.00292969,15.1054688 C7.00292969,16.2812559 7.27750376,17.2348596 7.82666016,17.9663086 C8.37581655,18.6977576 9.19498153,19.0634766 10.2841797,19.0634766 C11.2867889,19.0634766 12.0501276,18.6783893 12.5742188,17.9082031 C12.8522149,17.5026021 13.0595696,16.9694043 13.1962891,16.3085938 L14.5224609,16.3085938 C14.4039708,17.3658907 14.0120476,18.2522751 13.3466797,18.9677734 C12.5491497,19.8291059 11.4736396,20.2597656 10.1201172,20.2597656 C8.95344469,20.2597656 7.97363678,19.9065791 7.18066406,19.2001953 C6.13703905,18.2659458 5.61523438,16.8235775 5.61523438,14.8730469 C5.61523438,13.3919197 6.00715754,12.1774136 6.79101562,11.2294922 C7.63867611,10.1995391 8.80760974,9.68457031 10.2978516,9.68457031 C11.5693423,9.68457031 12.5559861,10.0195279 13.2578125,10.6894531 Z M16.0126953,9.92382812 L17.2431641,9.92382812 L17.2431641,13.6699219 C17.5348322,13.3007794 17.7968738,13.0410164 18.0292969,12.890625 C18.4257832,12.6308581 18.9202444,12.5009766 19.5126953,12.5009766 C20.5745496,12.5009766 21.2945945,12.8723921 21.6728516,13.6152344 C21.8779307,14.0208354 21.9804688,14.5836553 21.9804688,15.3037109 L21.9804688,20 L20.7158203,20 L20.7158203,15.3857422 C20.7158203,14.8479791 20.6474616,14.4537773 20.5107422,14.203125 C20.2874338,13.8020813 19.8681671,13.6015625 19.2529297,13.6015625 C18.7425105,13.6015625 18.27995,13.7770165 17.8652344,14.1279297 C17.4505188,14.4788429 17.2431641,15.1419222 17.2431641,16.1171875 L17.2431641,20 L16.0126953,20 L16.0126953,9.92382812 Z M28.3583984,12.8803711 C28.8460311,13.1241874 29.2174466,13.4397767 29.4726562,13.8271484 C29.7187512,14.1962909 29.8828121,14.6269507 29.9648438,15.1191406 C30.0377608,15.4563819 30.0742188,15.9941369 30.0742188,16.7324219 L24.7080078,16.7324219 C24.7307944,17.4752641 24.9062484,18.0711241 25.234375,18.5200195 C25.5625016,18.968915 26.0706346,19.1933594 26.7587891,19.1933594 C27.4013704,19.1933594 27.9140606,18.9814474 28.296875,18.5576172 C28.5156261,18.3115222 28.6705725,18.0266943 28.7617188,17.703125 L29.9716797,17.703125 C29.9397785,17.9720066 29.8338225,18.2716455 29.6538086,18.6020508 C29.4737947,18.9324561 29.2721365,19.2024729 29.0488281,19.4121094 C28.6751283,19.7766945 28.2125679,20.0227858 27.6611328,20.1503906 C27.3649074,20.2233077 27.0299498,20.2597656 26.65625,20.2597656 C25.7447871,20.2597656 24.9723339,19.928226 24.3388672,19.2651367 C23.7054005,18.6020475 23.3886719,17.6735086 23.3886719,16.4794922 C23.3886719,15.3037051 23.7076791,14.348962 24.3457031,13.6152344 C24.9837271,12.8815067 25.8177032,12.5146484 26.8476562,12.5146484 C27.3671901,12.5146484 27.8707658,12.6365548 28.3583984,12.8803711 Z M28.8095703,15.7548828 C28.7594399,15.221677 28.6432301,14.7955745 28.4609375,14.4765625 C28.1236962,13.8841116 27.5608763,13.5878906 26.7724609,13.5878906 C26.2073539,13.5878906 25.7334004,13.7918274 25.3505859,14.199707 C24.9677715,14.6075867 24.7649741,15.1259734 24.7421875,15.7548828 L28.8095703,15.7548828 Z M36.4213867,13.0683594 C36.9386419,13.469403 37.249674,14.1598258 37.3544922,15.1396484 L36.1582031,15.1396484 C36.0852861,14.6884743 35.9189466,14.3136408 35.6591797,14.0151367 C35.3994128,13.7166326 34.9824247,13.5673828 34.4082031,13.5673828 C33.624345,13.5673828 33.0638038,13.9501915 32.7265625,14.7158203 C32.5078114,15.2125676 32.3984375,15.8255172 32.3984375,16.5546875 C32.3984375,17.2884151 32.5533839,17.905922 32.8632812,18.4072266 C33.1731786,18.9085312 33.660804,19.1591797 34.3261719,19.1591797 C34.8365911,19.1591797 35.2410467,19.003094 35.5395508,18.690918 C35.8380549,18.3787419 36.0442703,17.9515001 36.1582031,17.4091797 L37.3544922,17.4091797 C37.2177728,18.3798877 36.8759793,19.0896787 36.3291016,19.5385742 C35.7822238,19.9874697 35.0826866,20.2119141 34.2304688,20.2119141 C33.2734327,20.2119141 32.510094,19.8621454 31.9404297,19.1625977 C31.3707654,18.4630499 31.0859375,17.5891979 31.0859375,16.5410156 C31.0859375,15.2558529 31.3981089,14.2555374 32.0224609,13.5400391 C32.646813,12.8245407 33.4420525,12.4667969 34.4082031,12.4667969 C35.233077,12.4667969 35.9041315,12.6673157 36.4213867,13.0683594 Z M38.5576172,9.95800781 L39.7402344,9.95800781 L39.7402344,15.7890625 L42.8984375,12.6787109 L44.4707031,12.6787109 L41.6679688,15.4199219 L44.6279297,20 L43.0556641,20 L40.7724609,16.3085938 L39.7402344,17.2519531 L39.7402344,20 L38.5576172,20 L38.5576172,9.95800781 Z M50.5273437,16.7597656 C50.559245,17.3294299 50.6936837,17.7919904 50.9306641,18.1474609 C51.3818382,18.8128288 52.1770776,19.1455078 53.3164062,19.1455078 C53.8268255,19.1455078 54.2916646,19.0725919 54.7109375,18.9267578 C55.5221395,18.6442043 55.9277344,18.13835 55.9277344,17.4091797 C55.9277344,16.862302 55.7568376,16.4726574 55.4150391,16.2402344 C55.0686832,16.0123687 54.5263709,15.8141284 53.7880859,15.6455078 L52.4277344,15.3378906 C51.5390581,15.1373688 50.9101581,14.9163424 50.5410156,14.6748047 C49.9029916,14.2555318 49.5839844,13.6289104 49.5839844,12.7949219 C49.5839844,11.8925736 49.8961557,11.1520211 50.5205078,10.5732422 C51.1448599,9.99446325 52.0289656,9.70507812 53.1728516,9.70507812 C54.2255912,9.70507812 55.1199507,9.95914459 55.855957,10.4672852 C56.5919633,10.9754257 56.9599609,11.7877548 56.9599609,12.9042969 L55.6816406,12.9042969 C55.6132809,12.3665338 55.467449,11.954103 55.2441406,11.6669922 C54.829425,11.142901 54.1253305,10.8808594 53.1318359,10.8808594 C52.3297486,10.8808594 51.753257,11.0494775 51.4023437,11.3867188 C51.0514305,11.72396 50.8759766,12.1158832 50.8759766,12.5625 C50.8759766,13.05469 51.0810526,13.4147124 51.4912109,13.6425781 C51.7600925,13.7884122 52.3684848,13.970702 53.3164062,14.1894531 L54.7246094,14.5107422 C55.4036492,14.6656909 55.9277325,14.8776028 56.296875,15.1464844 C56.934899,15.6158878 57.2539062,16.2971961 57.2539062,17.1904297 C57.2539062,18.3024144 56.8494507,19.0976539 56.0405273,19.5761719 C55.231604,20.0546899 54.291672,20.2939453 53.2207031,20.2939453 C51.971999,20.2939453 50.9944697,19.9749381 50.2880859,19.3369141 C49.5817022,18.7034474 49.2353515,17.8444065 49.2490234,16.7597656 L50.5273437,16.7597656 Z M63.3720703,12.8803711 C63.859703,13.1241874 64.2311185,13.4397767 64.4863281,13.8271484 C64.7324231,14.1962909 64.896484,14.6269507 64.9785156,15.1191406 C65.0514327,15.4563819 65.0878906,15.9941369 65.0878906,16.7324219 L59.7216797,16.7324219 C59.7444663,17.4752641 59.9199202,18.0711241 60.2480469,18.5200195 C60.5761735,18.968915 61.0843065,19.1933594 61.7724609,19.1933594 C62.4150423,19.1933594 62.9277325,18.9814474 63.3105469,18.5576172 C63.529298,18.3115222 63.6842443,18.0266943 63.7753906,17.703125 L64.9853516,17.703125 C64.9534504,17.9720066 64.8474944,18.2716455 64.6674805,18.6020508 C64.4874665,18.9324561 64.2858084,19.2024729 64.0625,19.4121094 C63.6888002,19.7766945 63.2262397,20.0227858 62.6748047,20.1503906 C62.3785792,20.2233077 62.0436217,20.2597656 61.6699219,20.2597656 C60.758459,20.2597656 59.9860058,19.928226 59.3525391,19.2651367 C58.7190724,18.6020475 58.4023438,17.6735086 58.4023438,16.4794922 C58.4023438,15.3037051 58.721351,14.348962 59.359375,13.6152344 C59.997399,12.8815067 60.8313751,12.5146484 61.8613281,12.5146484 C62.380862,12.5146484 62.8844377,12.6365548 63.3720703,12.8803711 Z M63.8232422,15.7548828 C63.7731117,15.221677 63.656902,14.7955745 63.4746094,14.4765625 C63.1373681,13.8841116 62.5745482,13.5878906 61.7861328,13.5878906 C61.2210258,13.5878906 60.7470722,13.7918274 60.3642578,14.199707 C59.9814434,14.6075867 59.7786459,15.1259734 59.7558594,15.7548828 L63.8232422,15.7548828 Z M71.4350586,13.0683594 C71.9523138,13.469403 72.2633458,14.1598258 72.3681641,15.1396484 L71.171875,15.1396484 C71.098958,14.6884743 70.9326185,14.3136408 70.6728516,14.0151367 C70.4130846,13.7166326 69.9960966,13.5673828 69.421875,13.5673828 C68.6380169,13.5673828 68.0774756,13.9501915 67.7402344,14.7158203 C67.5214833,15.2125676 67.4121094,15.8255172 67.4121094,16.5546875 C67.4121094,17.2884151 67.5670557,17.905922 67.8769531,18.4072266 C68.1868505,18.9085312 68.6744758,19.1591797 69.3398438,19.1591797 C69.850263,19.1591797 70.2547186,19.003094 70.5532227,18.690918 C70.8517268,18.3787419 71.0579421,17.9515001 71.171875,17.4091797 L72.3681641,17.4091797 C72.2314446,18.3798877 71.8896512,19.0896787 71.3427734,19.5385742 C70.7958957,19.9874697 70.0963584,20.2119141 69.2441406,20.2119141 C68.2871046,20.2119141 67.5237659,19.8621454 66.9541016,19.1625977 C66.3844373,18.4630499 66.0996094,17.5891979 66.0996094,16.5410156 C66.0996094,15.2558529 66.4117807,14.2555374 67.0361328,13.5400391 C67.6604849,12.8245407 68.4557243,12.4667969 69.421875,12.4667969 C70.2467489,12.4667969 70.9178034,12.6673157 71.4350586,13.0683594 Z M74.8291016,12.6787109 L74.8291016,17.5390625 C74.8291016,17.9127623 74.8883458,18.2180978 75.0068359,18.4550781 C75.225587,18.8925803 75.6334606,19.1113281 76.2304688,19.1113281 C77.0872439,19.1113281 77.6705714,18.7285195 77.9804688,17.9628906 C78.1490894,17.5527323 78.2333984,16.9899124 78.2333984,16.2744141 L78.2333984,12.6787109 L79.4638672,12.6787109 L79.4638672,20 L78.3017578,20 L78.3154297,18.9199219 C78.1559237,19.1979181 77.9576835,19.4326162 77.7207031,19.6240234 C77.2512997,20.0068379 76.681644,20.1982422 76.0117188,20.1982422 C74.9680937,20.1982422 74.2571633,19.8496129 73.8789062,19.1523438 C73.6738271,18.778644 73.5712891,18.2796255 73.5712891,17.6552734 L73.5712891,12.6787109 L74.8291016,12.6787109 Z M81.4189453,12.6787109 L82.5878906,12.6787109 L82.5878906,13.9433594 C82.6835942,13.6972644 82.9182924,13.3976255 83.2919922,13.0444336 C83.665692,12.6912417 84.0963517,12.5146484 84.5839844,12.5146484 C84.6067709,12.5146484 84.6455075,12.5169271 84.7001953,12.5214844 C84.7548831,12.5260417 84.8483066,12.5351562 84.9804688,12.5488281 L84.9804688,13.8476562 C84.9075517,13.8339843 84.8403323,13.8248698 84.7788086,13.8203125 C84.7172848,13.8157552 84.6500655,13.8134766 84.5771484,13.8134766 C83.9573537,13.8134766 83.4811215,14.0128561 83.1484375,14.4116211 C82.8157535,14.8103861 82.6494141,15.2695287 82.6494141,15.7890625 L82.6494141,20 L81.4189453,20 L81.4189453,12.6787109 Z M86.046875,12.7128906 L87.2978516,12.7128906 L87.2978516,20 L86.046875,20 L86.046875,12.7128906 Z M86.046875,9.95800781 L87.2978516,9.95800781 L87.2978516,11.3525391 L86.046875,11.3525391 L86.046875,9.95800781 Z M89.4033203,10.6347656 L90.6474609,10.6347656 L90.6474609,12.6787109 L91.8164062,12.6787109 L91.8164062,13.6835938 L90.6474609,13.6835938 L90.6474609,18.4619141 C90.6474609,18.7171237 90.7340486,18.8880204 90.9072266,18.9746094 C91.0029302,19.0247398 91.1624338,19.0498047 91.3857422,19.0498047 C91.4449873,19.0498047 91.5087887,19.0486654 91.5771484,19.0463867 C91.6455082,19.0441081 91.72526,19.0384115 91.8164062,19.0292969 L91.8164062,20 C91.6751295,20.0410158 91.5281583,20.0706379 91.3754883,20.0888672 C91.2228182,20.1070964 91.0576181,20.1162109 90.8798828,20.1162109 C90.3056612,20.1162109 89.9160167,19.9692398 89.7109375,19.675293 C89.5058583,19.3813462 89.4033203,18.9996768 89.4033203,18.5302734 L89.4033203,13.6835938 L88.4121094,13.6835938 L88.4121094,12.6787109 L89.4033203,12.6787109 L89.4033203,10.6347656 Z M97.6201172,12.6787109 L98.9804688,12.6787109 C98.8072908,13.1481143 98.4222035,14.2190672 97.8251953,15.8916016 C97.3785785,17.1494204 97.0048843,18.1748007 96.7041016,18.9677734 C95.9931605,20.8362724 95.4918634,21.9755839 95.2001953,22.3857422 C94.9085272,22.7959005 94.4072301,23.0009766 93.6962891,23.0009766 C93.5231111,23.0009766 93.3898117,22.9941407 93.2963867,22.9804688 C93.2029618,22.9667968 93.0878913,22.941732 92.9511719,22.9052734 L92.9511719,21.7841797 C93.1653657,21.8434248 93.320312,21.8798827 93.4160156,21.8935547 C93.5117192,21.9072266 93.5960283,21.9140625 93.6689453,21.9140625 C93.896811,21.9140625 94.0642898,21.8764652 94.1713867,21.8012695 C94.2784836,21.7260738 94.3684892,21.6337896 94.4414062,21.5244141 C94.4641928,21.4879555 94.5462233,21.3011085 94.6875,20.9638672 C94.8287767,20.6266259 94.9313148,20.3759774 94.9951172,20.2119141 L92.2880859,12.6787109 L93.6826172,12.6787109 L95.6445312,18.6396484 L97.6201172,12.6787109 Z M111.291992,10.6894531 C111.993819,11.3593783 112.383463,12.1204384 112.460938,12.9726562 L111.134766,12.9726562 C110.984374,12.3255176 110.684735,11.8128274 110.23584,11.4345703 C109.786944,11.0563132 109.156905,10.8671875 108.345703,10.8671875 C107.356766,10.8671875 106.558109,11.2146775 105.949707,11.909668 C105.341306,12.6046584 105.037109,13.6699147 105.037109,15.1054688 C105.037109,16.2812559 105.311683,17.2348596 105.86084,17.9663086 C106.409996,18.6977576 107.229161,19.0634766 108.318359,19.0634766 C109.320969,19.0634766 110.084307,18.6783893 110.608398,17.9082031 C110.886395,17.5026021 111.093749,16.9694043 111.230469,16.3085938 L112.556641,16.3085938 C112.43815,17.3658907 112.046227,18.2522751 111.380859,18.9677734 C110.583329,19.8291059 109.507819,20.2597656 108.154297,20.2597656 C106.987624,20.2597656 106.007816,19.9065791 105.214844,19.2001953 C104.171219,18.2659458 103.649414,16.8235775 103.649414,14.8730469 C103.649414,13.3919197 104.041337,12.1774136 104.825195,11.2294922 C105.672856,10.1995391 106.841789,9.68457031 108.332031,9.68457031 C109.603522,9.68457031 110.590166,10.0195279 111.291992,10.6894531 Z M118.630371,18.2807617 C118.933433,17.6632456 119.084961,16.9762408 119.084961,16.2197266 C119.084961,15.5361294 118.975587,14.9801454 118.756836,14.5517578 C118.41048,13.8772753 117.813481,13.5400391 116.96582,13.5400391 C116.213863,13.5400391 115.666994,13.8271456 115.325195,14.4013672 C114.983397,14.9755888 114.8125,15.6682902 114.8125,16.4794922 C114.8125,17.258793 114.983397,17.9082005 115.325195,18.4277344 C115.666994,18.9472682 116.209306,19.2070312 116.952148,19.2070312 C117.767908,19.2070312 118.32731,18.8982778 118.630371,18.2807617 Z M119.392578,13.4101562 C120.044274,14.0390656 120.370117,14.9641866 120.370117,16.1855469 C120.370117,17.3658913 120.083011,18.341142 119.508789,19.1113281 C118.934567,19.8815143 118.043626,20.2666016 116.835938,20.2666016 C115.828771,20.2666016 115.028974,19.9259474 114.436523,19.2446289 C113.844073,18.5633104 113.547852,17.6484432 113.547852,16.5 C113.547852,15.2695251 113.860023,14.2897172 114.484375,13.5605469 C115.108727,12.8313766 115.94726,12.4667969 117,12.4667969 C117.943364,12.4667969 118.740882,12.7812469 119.392578,13.4101562 Z M123.111328,18.3935547 C123.444012,18.9222032 123.97721,19.1865234 124.710938,19.1865234 C125.280602,19.1865234 125.748859,18.9415715 126.115723,18.4516602 C126.482586,17.9617489 126.666016,17.2587936 126.666016,16.3427734 C126.666016,15.4176386 126.47689,14.7329124 126.098633,14.2885742 C125.720376,13.8442361 125.253258,13.6220703 124.697266,13.6220703 C124.077471,13.6220703 123.575034,13.8590471 123.189941,14.3330078 C122.804848,14.8069685 122.612305,15.5042272 122.612305,16.4248047 C122.612305,17.2086628 122.778644,17.8649062 123.111328,18.3935547 Z M125.873047,12.9042969 C126.091798,13.0410163 126.340168,13.2802717 126.618164,13.6220703 L126.618164,9.92382812 L127.800781,9.92382812 L127.800781,20 L126.693359,20 L126.693359,18.9814453 C126.406249,19.4326194 126.066734,19.7584625 125.674805,19.9589844 C125.282876,20.1595062 124.833987,20.2597656 124.328125,20.2597656 C123.512366,20.2597656 122.805993,19.9168329 122.208984,19.230957 C121.611976,18.5450812 121.313477,17.6324927 121.313477,16.4931641 C121.313477,15.4267525 121.585772,14.5027708 122.130371,13.7211914 C122.67497,12.939612 123.45312,12.5488281 124.464844,12.5488281 C125.025393,12.5488281 125.49479,12.6673165 125.873047,12.9042969 Z M134.178711,12.8803711 C134.666344,13.1241874 135.037759,13.4397767 135.292969,13.8271484 C135.539064,14.1962909 135.703125,14.6269507 135.785156,15.1191406 C135.858073,15.4563819 135.894531,15.9941369 135.894531,16.7324219 L130.52832,16.7324219 C130.551107,17.4752641 130.726561,18.0711241 131.054688,18.5200195 C131.382814,18.968915 131.890947,19.1933594 132.579102,19.1933594 C133.221683,19.1933594 133.734373,18.9814474 134.117188,18.5576172 C134.335939,18.3115222 134.490885,18.0266943 134.582031,17.703125 L135.791992,17.703125 C135.760091,17.9720066 135.654135,18.2716455 135.474121,18.6020508 C135.294107,18.9324561 135.092449,19.2024729 134.869141,19.4121094 C134.495441,19.7766945 134.03288,20.0227858 133.481445,20.1503906 C133.18522,20.2233077 132.850262,20.2597656 132.476562,20.2597656 C131.5651,20.2597656 130.792646,19.928226 130.15918,19.2651367 C129.525713,18.6020475 129.208984,17.6735086 129.208984,16.4794922 C129.208984,15.3037051 129.527992,14.348962 130.166016,13.6152344 C130.80404,12.8815067 131.638016,12.5146484 132.667969,12.5146484 C133.187503,12.5146484 133.691078,12.6365548 134.178711,12.8803711 Z M134.629883,15.7548828 C134.579752,15.221677 134.463543,14.7955745 134.28125,14.4765625 C133.944009,13.8841116 133.381189,13.5878906 132.592773,13.5878906 C132.027666,13.5878906 131.553713,13.7918274 131.170898,14.199707 C130.788084,14.6075867 130.585287,15.1259734 130.5625,15.7548828 L134.629883,15.7548828 Z" id="Check-Security-Code" fill="#000000"></path>
                </g>
            </g>
        </g>
    </g>
</svg>