<svg id="图层_1" data-name="图层 1" xmlns="http://www.w3.org/2000/svg" viewBox="0 0 127 52"><defs><style>.cls-1{fill:#e47e10;}.cls-2{fill:#7c7c7c;}</style></defs><title>11</title><path class="cls-1" d="M99.57,27.94a83.24,83.24,0,0,0,5.66,14.33l-.33.72c-.89,1.78-1.28,2.5-2,4.11-.45.89-.61,1.22-.94,2,2.72,0,4-.78,5.33-3.39.44-.89.88-1.89,1.39-2.83l1.39-2.66a94.81,94.81,0,0,0,5-11.66l.22-.61h-3.94l-.11.28c-.44,1.44-.89,2.89-1.61,4.77-.67,1.67-1,2.5-1.83,4.28-.39.78-.55,1-1-.06-1.12-2.89-2.39-6.5-3.05-9l-.05-.28Z"/><path class="cls-1" d="M98,41.93V20.38c-2.83,0-3.83.67-3.83,2.89V38.55c0,2.33.5,3.38,3.83,3.38"/><path class="cls-1" d="M81.91,41.93V33.32c0-2.06.78-2.89,2.78-2.89,2.28,0,3.11.72,3.11,2.72v8.77c3.55,0,3.83-1.22,3.83-3.27V32.93a4.85,4.85,0,0,0-1.28-3.83c-1-.94-2.72-1.44-5.16-1.44-2.78,0-7.05.39-7.05,4.62v6.21c0,2.45.45,3.44,3.78,3.44"/><path class="cls-2" d="M48.57,33.16a4.33,4.33,0,0,1,4.27-3.61V27.83c-4.05.17-6.77,3.11-6.77,7.5,0,4.11,2.56,6.66,6.77,6.88V40.48a4.65,4.65,0,0,1-4.5-4.94c0-.17-.05-.44-.05-.77h4.55V33.16Zm4.27,9.05V40.48h.83a7.71,7.71,0,0,0,5.05-1.77v2.05a9.27,9.27,0,0,1-5.27,1.44Zm0-12.66h.39a3.58,3.58,0,0,1,3.94,3.61H52.85v1.61h6.66V34c0-3.94-2.28-6.16-6.27-6.16h-.39Z"/><path class="cls-2" d="M37.3,29.66a.2.2,0,0,1,.17.06V27.94h-.22c-3.17-.33-6.33,1.05-6.33,4.89V46.37c0,1.67.06,2.72,2.33,2.72V41.87a17.19,17.19,0,0,0,2.39.16,18.07,18.07,0,0,0,1.83-.11V40.15a9.7,9.7,0,0,1-1.89.17,11.63,11.63,0,0,1-2.33-.22V33.21c0-2.66,1.83-3.77,4.05-3.55m.17.06c2.72.33,4.22,2.27,4.22,5.11a5,5,0,0,1-4.22,5.33v1.78C41.52,41.32,44,38.6,44,34.65s-2.27-6.22-6.49-6.72Z"/><path class="cls-2" d="M2.93,28A60.51,60.51,0,0,0,7.65,40.1c1.16,2.22,2.83,2.06,4.05-.06A55,55,0,0,0,16.76,28.6L17,28H14.59l-.11.28a50.35,50.35,0,0,1-1.84,5.22,48.6,48.6,0,0,1-2.27,5.17c-.56,1-.84.72-1.11.05A76.74,76.74,0,0,1,5.48,28.32L5.43,28Z"/><path class="cls-2" d="M22.86,27.88v1.67a9.49,9.49,0,0,0-4.28,1.77c.28-.83.56-1.61.83-2.44a10.51,10.51,0,0,1,3.44-1m0,12.55H22.7c-1.94,0-2.89-.67-2.89-2.11s.89-2.22,3.05-2.67V34c-3.72.66-5.33,2.06-5.33,4.56s1.61,3.61,4.83,3.61h.5Zm.78,0h-.78v1.73a9,9,0,0,0,1.23-.06c2.94-.17,4-1.61,4-4.11V32.88a7,7,0,0,0-.45-3.27c-.6-1.17-1.88-1.78-3.72-1.78a6.73,6.73,0,0,0-1.06.05v1.67h.67c1.11,0,1.89.33,2.16,1,.22.45.28.79.28,2.67v.38h-.33c-1.06.11-1.94.23-2.78.34v1.66a19.9,19.9,0,0,1,3.05-.39v2.55c0,1.61-.22,2.5-2.27,2.61"/><path class="cls-2" d="M68.75,25.39a1.61,1.61,0,0,0,.89-1c.13-.53-.69-1-1.46-1.5a3.23,3.23,0,0,1-.4-.25c-.37-.24-.73-.49-1.1-.77a.48.48,0,0,1-.16-.61,1,1,0,0,1,.77-.56,21,21,0,0,0,2.31-.45c.08,0,.12,0,.12-.12s0-.12,0-.12a12.37,12.37,0,0,0-2.32-1L67,18.81l-.41-.16a9.23,9.23,0,0,1-4.06-2.48.47.47,0,0,1,0-.57.77.77,0,0,1,.57-.49,12,12,0,0,1,4.5,0,15.64,15.64,0,0,0,4.1.12c.33-.09.73-.16.82-.41s-.36-.56-1.34-.93c-5.28-2-11.25-2.43-16.4-4.38a7,7,0,0,1-2.07-1.14,1.74,1.74,0,0,1-.85-1.7,2.56,2.56,0,0,1,1.67-1.58c5.89-2.44,18,.69,22.49,3.49.29.16.37.45.29.53s-.16,0-.2,0c-.2-.89-18.68-4.83-22.3-2.15-.08.2.12.36.73.65a9.29,9.29,0,0,0,1.22.53,2.3,2.3,0,0,0,.29.12c4.62,1.59,9.91,2.2,14.73,3.62.45.16,1.14.36,1.79.61,1.62.61,2.56,1.26,2.89,2a1.28,1.28,0,0,1-.09,1.39c-1.26,1.38-6.58.89-9.46.6h0a.22.22,0,0,0-.2.12s0,.12.08.17a11.63,11.63,0,0,0,1.95.85,6.51,6.51,0,0,0,.69.29,6.39,6.39,0,0,1,.74.28,10.19,10.19,0,0,1,3.08,1.63.52.52,0,0,1,.17.57.91.91,0,0,1-.57.61,14.17,14.17,0,0,1-2.28.61s-.12.08-.12.12,0,.12,0,.16a3.2,3.2,0,0,1,1.54,1.71c.2.81-.36,1.66-2,2.11-.49.12-1,0-.12-.37"/><path class="cls-2" d="M119.9,27.55V25.44h.44l.5,1.5c.06.17.12.22.12.34a.79.79,0,0,1,.11-.34l.5-1.5h.38v2.11h-.27V25.77l-.61,1.78h-.28l-.61-1.84v1.84Zm-1.44,0V25.66h-.73v-.22h1.72v.22h-.72v1.89Z"/><path class="cls-1" d="M68.9,38.4a3.6,3.6,0,1,1,3.6-3.6,3.6,3.6,0,0,1-3.6,3.6m0-10.81a7.2,7.2,0,1,0,7.21,7.2,7.2,7.2,0,0,0-7.21-7.2"/></svg>