<?xml version="1.0" encoding="UTF-8"?>
<svg width="66px" height="66px" viewBox="0 0 66 66" version="1.1" xmlns="http://www.w3.org/2000/svg" xmlns:xlink="http://www.w3.org/1999/xlink">
    <!-- Generator: Sketch 45.2 (43514) - http://www.bohemiancoding.com/sketch -->
    <title>play</title>
    <desc>Created with Sketch.</desc>
    <defs></defs>
    <g id="product-list" stroke="none" stroke-width="1" fill="none" fill-rule="evenodd">
        <g id="main" transform="translate(-927.000000, -283.000000)">
            <g id="play" transform="translate(927.000000, 283.000000)">
                <g>
                    <circle id="Oval-2" fill-opacity="0.3" fill="#000000" cx="33" cy="33" r="33"></circle>
                    <path d="M47.97963,30.6612229 C42.8439701,27.1666721 33.5321674,21.9367381 28.2295209,18.6957816 C26.0558238,17.3252071 24.2274183,17.8756185 24.0521479,20.297068 C23.9249395,26.7820976 24.0521479,39.2950798 24.0521479,45.8925537 C24.1623788,48.3508285 26.3296786,48.6747109 28.2103289,47.6876446 L47.9332083,35.7391807 C47.8985971,35.7180205 51.9747611,33.4760227 47.97963,30.6612229 M32.999959,62.6994997 C16.5972107,62.6994997 3.29987287,49.4022776 3.29987287,33 C3.29987287,16.5970663 16.5972107,3.29992619 32.999959,3.29992619 C49.4024613,3.29992619 62.7000451,16.5970663 62.7000451,33 C62.7000451,49.4026056 49.4027893,62.6994997 32.999959,62.6994997 M32.999959,0 C14.7743003,0 0,14.7744179 0,33 C0,51.225172 14.7746284,66 32.999959,66 C51.2253716,66 66,51.225172 66,33 C66,14.7744179 51.2253716,0 32.999959,0" id="Fill-1" fill="#FFFFFF"></path>
                </g>
            </g>
        </g>
    </g>
</svg>