<?xml version="1.0" encoding="UTF-8"?>
<svg width="48px" height="48px" viewBox="0 0 48 48" version="1.1" xmlns="http://www.w3.org/2000/svg" xmlns:xlink="http://www.w3.org/1999/xlink">
    <!-- Generator: Sketch 45.2 (43514) - http://www.bohemiancoding.com/sketch -->
    <title>warning copy</title>
    <desc>Created with Sketch.</desc>
    <defs></defs>
    <g id="symbol" stroke="none" stroke-width="1" fill="none" fill-rule="evenodd">
        <g id="warning-copy" fill="#D8D8D8">
            <path d="M46.1133271,14.6575546 C47.3652338,17.617438 48,20.7607993 48,24 C48,27.2392007 47.364989,30.3823172 46.1130823,33.342323 C44.9043827,36.2004916 43.1740145,38.7668581 40.9704481,40.9705525 C38.7668816,43.1740022 36.2003993,44.9043748 33.3423603,46.1131998 C30.3824846,47.3651098 27.2390089,48 23.9999388,48 C20.7607463,48 17.6172706,47.3651098 14.6575173,46.1131998 C11.7993559,44.9044972 9.23287357,43.1740022 7.02930714,40.9705525 C4.82574071,38.7668581 3.09549492,36.2004916 1.88667294,33.342323 C0.634643778,30.3823172 0,27.2392007 0,24 C0,20.7607993 0.634643778,17.617438 1.88667294,14.6575546 C3.09549492,11.799386 4.82586311,9.23277471 7.02942954,7.02932506 C9.23287357,4.82575302 11.7994783,3.09550281 14.6575173,1.88667775 C17.6175154,0.634645396 20.7607463,0 23.9999388,0 C27.2390089,0 30.3824846,0.634645396 33.3423603,1.88667775 C36.2003993,3.09550281 38.7671264,4.82563062 40.9705705,7.02932506 C43.1741369,9.23289711 44.9043827,11.799386 46.1133271,14.6575546 Z M24,45 C35.5792737,45 45,35.5793985 45,24 C45,12.4206015 35.5792737,3 24,3 C12.4206015,3 3,12.4206015 3,24 C3,35.5793985 12.4206015,45 24,45 Z M25.5,13.5 L25.5,28.5 C25.5,29.3284271 24.8284271,30 24,30 C23.1715729,30 22.5,29.3284271 22.5,28.5 L22.5,13.5 C22.5,12.6715729 23.1715729,12 24,12 C24.8284271,12 25.5,12.6715729 25.5,13.5 Z M25.5,33.5 L25.5,34.5 C25.5,35.3284271 24.8284271,36 24,36 C23.1715729,36 22.5,35.3284271 22.5,34.5 L22.5,33.5 C22.5,32.6715729 23.1715729,32 24,32 C24.8284271,32 25.5,32.6715729 25.5,33.5 Z" id="Combined-Shape"></path>
        </g>
    </g>
</svg>